<svg width="54" height="49" viewBox="0 0 54 49" fill="none" xmlns="http://www.w3.org/2000/svg">
<path d="M8 17.4384C8 12.1954 8 9.57395 9.75736 7.94518C11.5147 6.31641 14.3431 6.31641 20 6.31641H28C33.6569 6.31641 36.4853 6.31641 38.2426 7.94518C40 9.57395 40 12.1954 40 17.4384V30.0944C40 35.0683 40 37.5553 38.3114 38.3159C36.6228 39.0766 34.5129 37.5401 30.2931 34.4671L28.9426 33.4836C26.5698 31.7558 25.3835 30.8918 24 30.8918C22.6165 30.8918 21.4302 31.7558 19.0574 33.4836L17.7069 34.4671C13.4871 37.5401 11.3772 39.0766 9.68859 38.3159C8 37.5553 8 35.0683 8 30.0944V17.4384Z" fill="#FF3002" stroke="#FF3002" stroke-width="2"/>
<path d="M14 20.2186C14 14.9757 14 12.3542 15.7574 10.7255C17.5147 9.09668 20.3431 9.09668 26 9.09668H34C39.6569 9.09668 42.4853 9.09668 44.2426 10.7255C46 12.3542 46 14.9757 46 20.2186V32.8747C46 37.8486 46 40.3355 44.3114 41.0962C42.6228 41.8569 40.5129 40.3204 36.2931 37.2474L34.9426 36.2639C32.5698 34.536 31.3835 33.6721 30 33.6721C28.6165 33.6721 27.4302 34.536 25.0574 36.2639L23.7069 37.2474C19.4871 40.3204 17.3772 41.8569 15.6886 41.0962C14 40.3355 14 37.8486 14 32.8747V20.2186Z" fill="#FFD600" stroke="#FFD600" stroke-width="2"/>
</svg>
