<svg width="24" height="25" viewBox="0 0 24 25" fill="none" xmlns="http://www.w3.org/2000/svg">
<path d="M19.3259 6.74452L18.4944 7.30009L18.4944 7.30009L19.3259 6.74452ZM19.3259 17.1891L18.4944 16.6335L18.4944 16.6335L19.3259 17.1891ZM18.2223 18.2927L17.6667 17.4612L17.6667 17.4612L18.2223 18.2927ZM14 18.9654L13.9956 17.9654C13.4451 17.9678 13 18.4149 13 18.9654H14ZM14 18.9668L14.8944 19.414C14.9639 19.2752 15 19.122 15 18.9668H14ZM10 18.9668H9C9 19.122 9.03615 19.2752 9.10557 19.414L10 18.9668ZM10 18.9654H11C11 18.4149 10.5549 17.9678 10.0044 17.9654L10 18.9654ZM5.77772 18.2927L6.33329 17.4612L6.33329 17.4612L5.77772 18.2927ZM4.67412 17.1891L5.50559 16.6335L5.50559 16.6335L4.67412 17.1891ZM4.67412 6.74452L5.50559 7.30009L5.50559 7.30009L4.67412 6.74452ZM5.77772 5.64092L6.33329 6.47239L6.33329 6.47239L5.77772 5.64092ZM18.2223 5.64092L17.6667 6.47239L17.6667 6.47239L18.2223 5.64092ZM21 11.9668C21 10.5831 21.0012 9.47014 20.9106 8.57944C20.8183 7.67203 20.6225 6.88509 20.1573 6.18895L18.4944 7.30009C18.7034 7.61284 18.8446 8.03258 18.9209 8.78185C18.9988 9.54784 19 10.5415 19 11.9668H21ZM20.1573 17.7446C20.6225 17.0485 20.8183 16.2616 20.9106 15.3542C21.0012 14.4635 21 13.3504 21 11.9668H19C19 13.3921 18.9988 14.3858 18.9209 15.1517C18.8446 15.901 18.7034 16.3208 18.4944 16.6335L20.1573 17.7446ZM18.7779 19.1241C19.3238 18.7594 19.7926 18.2906 20.1573 17.7446L18.4944 16.6335C18.2755 16.9611 17.9943 17.2423 17.6667 17.4612L18.7779 19.1241ZM14.0044 19.9654C15.0785 19.9607 15.9763 19.9407 16.7267 19.8369C17.4931 19.731 18.1699 19.5304 18.7779 19.1241L17.6667 17.4612C17.3934 17.6439 17.0378 17.7749 16.4528 17.8558C15.8518 17.9389 15.0792 17.9607 13.9956 17.9654L14.0044 19.9654ZM15 18.9668V18.9654H13V18.9668H15ZM13.7889 21.6252L14.8944 19.414L13.1056 18.5196L12 20.7307L13.7889 21.6252ZM10.2111 21.6252C10.9482 23.0993 13.0518 23.0993 13.7889 21.6252L12 20.7307L12 20.7307L10.2111 21.6252ZM9.10557 19.414L10.2111 21.6252L12 20.7307L10.8944 18.5196L9.10557 19.414ZM9 18.9654V18.9668H11V18.9654H9ZM5.22215 19.1241C5.83014 19.5304 6.50685 19.731 7.2733 19.8369C8.02368 19.9407 8.92154 19.9607 9.99564 19.9654L10.0044 17.9654C8.92075 17.9607 8.14815 17.9389 7.54716 17.8558C6.96223 17.7749 6.60665 17.6439 6.33329 17.4612L5.22215 19.1241ZM3.84265 17.7446C4.20744 18.2906 4.6762 18.7594 5.22215 19.1241L6.33329 17.4612C6.00572 17.2423 5.72447 16.9611 5.50559 16.6335L3.84265 17.7446ZM3 11.9668C3 13.3504 2.99879 14.4635 3.0894 15.3542C3.18171 16.2616 3.3775 17.0485 3.84265 17.7446L5.50559 16.6335C5.29662 16.3208 5.15535 15.901 5.07913 15.1517C5.00121 14.3858 5 13.3921 5 11.9668H3ZM3.84265 6.18895C3.3775 6.88509 3.18171 7.67203 3.0894 8.57944C2.99879 9.47014 3 10.5831 3 11.9668H5C5 10.5415 5.00121 9.54784 5.07913 8.78185C5.15535 8.03258 5.29662 7.61284 5.50559 7.30009L3.84265 6.18895ZM5.22215 4.80945C4.6762 5.17424 4.20744 5.64299 3.84265 6.18895L5.50559 7.30009C5.72447 6.97252 6.00572 6.69126 6.33329 6.47239L5.22215 4.80945ZM11 3.9668C9.61635 3.9668 8.50334 3.96559 7.61264 4.0562C6.70523 4.14851 5.91829 4.3443 5.22215 4.80945L6.33329 6.47239C6.64604 6.26341 7.06578 6.12215 7.81505 6.04593C8.58104 5.96801 9.57473 5.9668 11 5.9668V3.9668ZM13 3.9668H11V5.9668H13V3.9668ZM18.7779 4.80945C18.0817 4.3443 17.2948 4.14851 16.3874 4.0562C15.4967 3.96559 14.3836 3.9668 13 3.9668V5.9668C14.4253 5.9668 15.419 5.96801 16.1849 6.04593C16.9342 6.12215 17.354 6.26341 17.6667 6.47239L18.7779 4.80945ZM20.1573 6.18895C19.7926 5.64299 19.3238 5.17424 18.7779 4.80945L17.6667 6.47239C17.9943 6.69126 18.2755 6.97252 18.4944 7.30009L20.1573 6.18895Z" fill="#56AEFF"/>
<circle cx="16" cy="11.9668" r="1" fill="#56AEFF" stroke="#56AEFF" stroke-linecap="round"/>
<circle cx="12" cy="11.9668" r="1" fill="#56AEFF" stroke="#56AEFF" stroke-linecap="round"/>
<circle cx="8" cy="11.9668" r="1" fill="#56AEFF" stroke="#56AEFF" stroke-linecap="round"/>
</svg>
