<svg width="24" height="25" viewBox="0 0 24 25" fill="none" xmlns="http://www.w3.org/2000/svg">
<path d="M19.3259 6.46717L18.4944 7.02274L18.4944 7.02274L19.3259 6.46717ZM19.3259 16.9117L18.4944 16.3562L18.4944 16.3562L19.3259 16.9117ZM18.2223 18.0153L17.6667 17.1839L17.6667 17.1839L18.2223 18.0153ZM14 18.6881L13.9956 17.6881C13.4451 17.6905 13 18.1375 13 18.6881H14ZM14 18.6895L14.8944 19.1367C14.9639 18.9978 15 18.8447 15 18.6895H14ZM10 18.6895H9C9 18.8447 9.03615 18.9978 9.10557 19.1367L10 18.6895ZM10 18.6881H11C11 18.1375 10.5549 17.6905 10.0044 17.6881L10 18.6881ZM5.77772 18.0153L6.33329 17.1839L6.33329 17.1839L5.77772 18.0153ZM4.67412 16.9117L5.50559 16.3562L5.50559 16.3562L4.67412 16.9117ZM4.67412 6.46717L5.50559 7.02274L5.50559 7.02274L4.67412 6.46717ZM5.77772 5.36357L6.33329 6.19504L6.33329 6.19504L5.77772 5.36357ZM18.2223 5.36357L17.6667 6.19504L17.6667 6.19504L18.2223 5.36357ZM21 11.6895C21 10.3058 21.0012 9.19279 20.9106 8.3021C20.8183 7.39468 20.6225 6.60775 20.1573 5.9116L18.4944 7.02274C18.7034 7.33549 18.8446 7.75523 18.9209 8.50451C18.9988 9.27049 19 10.2642 19 11.6895H21ZM20.1573 17.4673C20.6225 16.7712 20.8183 15.9842 20.9106 15.0768C21.0012 14.1861 21 13.0731 21 11.6895H19C19 13.1147 18.9988 14.1084 18.9209 14.8744C18.8446 15.6237 18.7034 16.0434 18.4944 16.3562L20.1573 17.4673ZM18.7779 18.8468C19.3238 18.482 19.7926 18.0133 20.1573 17.4673L18.4944 16.3562C18.2755 16.6837 17.9943 16.965 17.6667 17.1839L18.7779 18.8468ZM14.0044 19.6881C15.0785 19.6834 15.9763 19.6633 16.7267 19.5596C17.4931 19.4537 18.1699 19.253 18.7779 18.8468L17.6667 17.1839C17.3934 17.3665 17.0378 17.4976 16.4528 17.5784C15.8518 17.6615 15.0792 17.6834 13.9956 17.6881L14.0044 19.6881ZM15 18.6895V18.6881H13V18.6895H15ZM13.7889 21.3478L14.8944 19.1367L13.1056 18.2422L12 20.4534L13.7889 21.3478ZM10.2111 21.3478C10.9482 22.8219 13.0518 22.8219 13.7889 21.3478L12 20.4534L12 20.4534L10.2111 21.3478ZM9.10557 19.1367L10.2111 21.3478L12 20.4534L10.8944 18.2422L9.10557 19.1367ZM9 18.6881V18.6895H11V18.6881H9ZM5.22215 18.8468C5.83014 19.253 6.50685 19.4537 7.2733 19.5596C8.02368 19.6633 8.92154 19.6834 9.99564 19.6881L10.0044 17.6881C8.92075 17.6834 8.14815 17.6615 7.54716 17.5784C6.96223 17.4976 6.60665 17.3665 6.33329 17.1839L5.22215 18.8468ZM3.84265 17.4673C4.20744 18.0133 4.6762 18.482 5.22215 18.8468L6.33329 17.1839C6.00572 16.965 5.72447 16.6837 5.50559 16.3562L3.84265 17.4673ZM3 11.6895C3 13.0731 2.99879 14.1861 3.0894 15.0768C3.18171 15.9842 3.3775 16.7712 3.84265 17.4673L5.50559 16.3562C5.29662 16.0434 5.15535 15.6237 5.07913 14.8744C5.00121 14.1084 5 13.1147 5 11.6895H3ZM3.84265 5.9116C3.3775 6.60775 3.18171 7.39468 3.0894 8.3021C2.99879 9.19279 3 10.3058 3 11.6895H5C5 10.2642 5.00121 9.27049 5.07913 8.50451C5.15535 7.75523 5.29662 7.33549 5.50559 7.02274L3.84265 5.9116ZM5.22215 4.53211C4.6762 4.8969 4.20744 5.36565 3.84265 5.9116L5.50559 7.02274C5.72447 6.69517 6.00572 6.41392 6.33329 6.19504L5.22215 4.53211ZM11 3.68945C9.61635 3.68945 8.50334 3.68824 7.61264 3.77885C6.70523 3.87116 5.91829 4.06696 5.22215 4.53211L6.33329 6.19504C6.64604 5.98607 7.06578 5.84481 7.81505 5.76858C8.58104 5.69066 9.57473 5.68945 11 5.68945V3.68945ZM13 3.68945H11V5.68945H13V3.68945ZM18.7779 4.53211C18.0817 4.06696 17.2948 3.87116 16.3874 3.77885C15.4967 3.68824 14.3836 3.68945 13 3.68945V5.68945C14.4253 5.68945 15.419 5.69066 16.1849 5.76858C16.9342 5.84481 17.354 5.98607 17.6667 6.19504L18.7779 4.53211ZM20.1573 5.9116C19.7926 5.36565 19.3238 4.8969 18.7779 4.5321L17.6667 6.19504C17.9943 6.41392 18.2755 6.69517 18.4944 7.02274L20.1573 5.9116Z" fill="#696D6E"/>
<circle cx="16" cy="11.6895" r="1" fill="#696D6E" stroke="#696D6E" stroke-linecap="round"/>
<circle cx="12" cy="11.6895" r="1" fill="#696D6E" stroke="#696D6E" stroke-linecap="round"/>
<circle cx="8" cy="11.6895" r="1" fill="#696D6E" stroke="#696D6E" stroke-linecap="round"/>
</svg>
