<svg width="43" height="43" viewBox="0 0 43 43" fill="none" xmlns="http://www.w3.org/2000/svg">
<path d="M20.6049 5.82221L8.95487 11.6472C8.17432 12.0375 7.78405 12.2327 7.78405 12.5417C7.78405 12.8507 8.17432 13.0458 8.95487 13.4361L20.6049 19.2611C21.0438 19.4806 21.2633 19.5903 21.4993 19.5903C21.7354 19.5903 21.9549 19.4806 22.3938 19.2611L22.3938 19.2611L34.0438 13.4361C34.8244 13.0458 35.2146 12.8507 35.2146 12.5417C35.2146 12.2327 34.8244 12.0375 34.0438 11.6472L22.3938 5.82221C21.9549 5.60276 21.7354 5.49303 21.4993 5.49303C21.2633 5.49303 21.0438 5.60276 20.6049 5.82221Z" fill="#FF3002"/>
<path fill-rule="evenodd" clip-rule="evenodd" d="M12.5417 18.8132L19.7116 22.3982C20.5894 22.8371 21.0283 23.0565 21.5004 23.0565C21.9726 23.0565 22.4115 22.8371 23.2893 22.3982L30.4592 18.8132L34.0449 20.6061C34.8255 20.9964 35.2158 21.1915 35.2158 21.5005C35.2158 21.8096 34.8255 22.0047 34.0449 22.395L22.3949 28.22C21.956 28.4394 21.7365 28.5492 21.5005 28.5492C21.2644 28.5492 21.0449 28.4394 20.606 28.22L8.95598 22.395L8.95597 22.395C8.17543 22.0047 7.78516 21.8096 7.78516 21.5005C7.78516 21.1915 8.17543 20.9964 8.95598 20.6061L12.5417 18.8132Z" fill="#FF3002"/>
<path fill-rule="evenodd" clip-rule="evenodd" d="M12.5408 27.7715L19.7116 31.3569C20.5894 31.7958 21.0283 32.0152 21.5005 32.0152C21.9726 32.0152 22.4115 31.7958 23.2893 31.3569L30.4601 27.7715L34.0449 29.5639C34.8255 29.9542 35.2158 30.1493 35.2158 30.4583C35.2158 30.7674 34.8255 30.9625 34.0449 31.3528L22.3949 37.1778C21.956 37.3973 21.7365 37.507 21.5005 37.507C21.2644 37.507 21.0449 37.3972 20.606 37.1778L8.95598 31.3528C8.17543 30.9625 7.78516 30.7674 7.78516 30.4583C7.78516 30.1493 8.17543 29.9542 8.95598 29.5639L12.5408 27.7715Z" fill="#FF3002"/>
</svg>
