<svg width="22" height="22" viewBox="0 0 24 24" fill="none" xmlns="http://www.w3.org/2000/svg">
<path d="M18.4672 16.6778L19.391 17.0605V17.0605L18.4672 16.6778ZM14.6788 20.4662L15.0615 21.3901H15.0615L14.6788 20.4662ZM9.32122 20.4662L8.93853 21.3901L8.93853 21.3901L9.32122 20.4662ZM7.05025 18.9488L7.75736 18.2417H7.75736L7.05025 18.9488ZM5.53284 16.6778L4.60896 17.0605L5.53284 16.6778ZM15.4118 6.07023L14.7707 5.30279L15.4118 6.07023ZM15.588 6.07012L16.2292 5.30271L15.588 6.07012ZM13.1087 8.53691L12.1614 8.85717L13.1087 8.53691ZM13.3939 8.5633L14.2624 9.05907L13.3939 8.5633ZM9.80918 3.08577L9.14384 2.33924L9.80918 3.08577ZM10.0029 3.09708L9.27072 3.7782L10.0029 3.09708ZM9.14384 2.33924C8.38115 3.01897 4 7.20519 4 13.999H6C6 8.07771 9.84251 4.39558 10.4745 3.83231L9.14384 2.33924ZM14.0561 8.21665C12.9477 4.9381 11.2024 2.91831 10.7351 2.41597L9.27072 3.7782C9.62017 4.15385 11.1734 5.93472 12.1614 8.85717L14.0561 8.21665ZM14.2624 9.05907C14.9998 7.76724 15.8298 7.02404 16.0529 6.83767L14.7707 5.30279C14.4255 5.59116 13.4146 6.51001 12.5255 8.06752L14.2624 9.05907ZM14.9469 6.83754C15.3898 7.20759 18 9.57719 18 13.9402H20C20 8.71759 16.8719 5.8397 16.2292 5.30271L14.9469 6.83754ZM18 13.9402V13.999H20V13.9402H18ZM18 13.999C18 14.787 17.8448 15.5672 17.5433 16.2951L19.391 17.0605C19.7931 16.0899 20 15.0496 20 13.999H18ZM17.5433 16.2951C17.2417 17.0231 16.7998 17.6845 16.2426 18.2417L17.6569 19.6559C18.3997 18.913 18.989 18.0311 19.391 17.0605L17.5433 16.2951ZM16.2426 18.2417C15.6855 18.7988 15.0241 19.2408 14.2961 19.5423L15.0615 21.3901C16.0321 20.988 16.914 20.3988 17.6569 19.6559L16.2426 18.2417ZM14.2961 19.5423C13.5681 19.8438 12.7879 19.999 12 19.999V21.999C13.0506 21.999 14.0909 21.7921 15.0615 21.3901L14.2961 19.5423ZM12 19.999C11.2121 19.999 10.4319 19.8438 9.7039 19.5423L8.93853 21.3901C9.90914 21.7921 10.9494 21.999 12 21.999V19.999ZM9.7039 19.5423C8.97595 19.2408 8.31451 18.7988 7.75736 18.2417L6.34314 19.6559C7.08601 20.3988 7.96793 20.988 8.93853 21.3901L9.7039 19.5423ZM7.75736 18.2417C7.20021 17.6845 6.75825 17.0231 6.45672 16.2951L4.60896 17.0605C5.011 18.0311 5.60028 18.913 6.34315 19.6559L7.75736 18.2417ZM6.45672 16.2951C6.15519 15.5672 6 14.787 6 13.999H4C4 15.0496 4.20693 16.0899 4.60896 17.0605L6.45672 16.2951ZM16.0529 6.83767C15.7344 7.10375 15.2677 7.10558 14.9469 6.83754L16.2292 5.30271C15.8053 4.9486 15.1922 4.95064 14.7707 5.30279L16.0529 6.83767ZM12.1614 8.85717C12.4857 9.81636 13.7768 9.90962 14.2624 9.05907L12.5255 8.06752C12.8788 7.44866 13.8172 7.51021 14.0561 8.21665L12.1614 8.85717ZM10.4745 3.83231C10.1037 4.16279 9.56813 4.0979 9.27072 3.7782L10.7351 2.41597C10.3327 1.98343 9.62969 1.90623 9.14384 2.33924L10.4745 3.83231Z" fill="#FF964A"/>
<path d="M11.4581 11.4102L10.8311 10.6311V10.6311L11.4581 11.4102ZM8.04628 16.3844L7.05717 16.2372H7.05717L8.04628 16.3844ZM12.5421 11.4102L13.169 10.6311L12.5421 11.4102ZM15.9537 16.3844L14.9646 16.5316L14.9646 16.5316L15.9537 16.3844ZM15.958 16.4184L14.9634 16.5223C14.9648 16.5358 14.9665 16.5492 14.9685 16.5626L15.958 16.4184ZM8.04197 16.4184L9.03153 16.5625C9.03347 16.5492 9.03515 16.5358 9.03655 16.5223L8.04197 16.4184ZM10.8311 10.6311C10.2968 11.0611 9.46733 11.793 8.71968 12.7317C7.97947 13.6612 7.26126 14.8658 7.05717 16.2372L9.03538 16.5316C9.16671 15.6492 9.65301 14.7702 10.2842 13.9777C10.9078 13.1946 11.6165 12.5663 12.085 12.1893L10.8311 10.6311ZM13.169 10.6311C12.4825 10.0787 11.5176 10.0787 10.8311 10.6311L12.085 12.1893C12.067 12.2038 12.0365 12.2168 12.0001 12.2168C11.9636 12.2168 11.9331 12.2038 11.9151 12.1893L13.169 10.6311ZM16.9428 16.2372C16.7387 14.8658 16.0206 13.6612 15.2804 12.7318C14.5328 11.793 13.7033 11.0611 13.169 10.6311L11.9151 12.1893C12.3836 12.5663 13.0922 13.1946 13.7159 13.9777C14.347 14.7702 14.8333 15.6492 14.9646 16.5316L16.9428 16.2372ZM16.9526 16.3146C16.9499 16.2888 16.9467 16.263 16.9428 16.2372L14.9646 16.5316C14.9642 16.5286 14.9638 16.5255 14.9634 16.5223L16.9526 16.3146ZM14.9685 16.5626C14.9892 16.7048 15 16.8508 15 17H17C17 16.7541 16.9822 16.5117 16.9476 16.2743L14.9685 16.5626ZM15 17C15 18.6568 13.6569 20 12 20V22C14.7614 22 17 19.7614 17 17H15ZM12 20C10.3431 20 9 18.6568 9 17H7C7 19.7614 9.23858 22 12 22V20ZM9 17C9 16.8508 9.01081 16.7048 9.03153 16.5625L7.05241 16.2743C7.01783 16.5117 7 16.7541 7 17H9ZM7.05717 16.2372C7.05334 16.2629 7.05008 16.2887 7.04738 16.3145L9.03655 16.5223C9.03623 16.5255 9.03583 16.5286 9.03538 16.5316L7.05717 16.2372Z" fill="#FF0000"/>
</svg>
