<svg width="24" height="25" viewBox="0 0 24 25" fill="none" xmlns="http://www.w3.org/2000/svg">
<path d="M18.4672 17.3751L19.391 17.7578L19.391 17.7578L18.4672 17.3751ZM14.6788 21.1635L15.0615 22.0873L15.0615 22.0873L14.6788 21.1635ZM9.32122 21.1635L8.93853 22.0873L8.93853 22.0873L9.32122 21.1635ZM7.05025 19.6461L7.75736 18.9389L7.75736 18.9389L7.05025 19.6461ZM5.53284 17.3751L4.60896 17.7578L4.60896 17.7578L5.53284 17.3751ZM15.4118 6.76749L14.7707 6.00005L15.4118 6.76749ZM15.588 6.76739L16.2292 5.99997L15.588 6.76739ZM13.1087 9.23418L12.1614 9.55444L13.1087 9.23418ZM13.3939 9.26056L14.2624 9.75634L13.3939 9.26056ZM9.80918 3.78304L9.14384 3.0365L9.80918 3.78304ZM10.0029 3.79435L9.27072 4.47546L10.0029 3.79435ZM9.14384 3.0365C8.38115 3.71624 4 7.90246 4 14.6963H6C6 8.77497 9.84251 5.09285 10.4745 4.52958L9.14384 3.0365ZM14.0561 8.91392C12.9477 5.63536 11.2024 3.61557 10.7351 3.11323L9.27072 4.47546C9.62017 4.85111 11.1734 6.63198 12.1614 9.55444L14.0561 8.91392ZM14.2624 9.75634C14.9998 8.4645 15.8298 7.7213 16.0529 7.53494L14.7707 6.00005C14.4255 6.28843 13.4146 7.20728 12.5255 8.76479L14.2624 9.75634ZM14.9469 7.53481C15.3898 7.90486 18 10.2745 18 14.6375H20C20 9.41486 16.8719 6.53697 16.2292 5.99997L14.9469 7.53481ZM18 14.6375V14.6963H20V14.6375H18ZM18 14.6963C18 15.4842 17.8448 16.2645 17.5433 16.9924L19.391 17.7578C19.7931 16.7872 20 15.7469 20 14.6963H18ZM17.5433 16.9924C17.2417 17.7204 16.7998 18.3818 16.2426 18.939L17.6569 20.3532C18.3997 19.6103 18.989 18.7284 19.391 17.7578L17.5433 16.9924ZM16.2426 18.939C15.6855 19.4961 15.0241 19.9381 14.2961 20.2396L15.0615 22.0873C16.0321 21.6853 16.914 21.096 17.6569 20.3532L16.2426 18.939ZM14.2961 20.2396C13.5681 20.5411 12.7879 20.6963 12 20.6963V22.6963C13.0506 22.6963 14.0909 22.4894 15.0615 22.0873L14.2961 20.2396ZM12 20.6963C11.2121 20.6963 10.4319 20.5411 9.7039 20.2396L8.93853 22.0873C9.90914 22.4894 10.9494 22.6963 12 22.6963V20.6963ZM9.7039 20.2396C8.97595 19.9381 8.31451 19.4961 7.75736 18.9389L6.34314 20.3532C7.08601 21.096 7.96793 21.6853 8.93853 22.0873L9.7039 20.2396ZM7.75736 18.9389C7.20021 18.3818 6.75825 17.7204 6.45672 16.9924L4.60896 17.7578C5.011 18.7284 5.60028 19.6103 6.34315 20.3532L7.75736 18.9389ZM6.45672 16.9924C6.15519 16.2645 6 15.4842 6 14.6963H4C4 15.7469 4.20693 16.7872 4.60896 17.7578L6.45672 16.9924ZM16.0529 7.53494C15.7344 7.80102 15.2677 7.80284 14.9469 7.53481L16.2292 5.99997C15.8053 5.64587 15.1922 5.64791 14.7707 6.00005L16.0529 7.53494ZM12.1614 9.55444C12.4857 10.5136 13.7768 10.6069 14.2624 9.75634L12.5255 8.76479C12.8788 8.14593 13.8172 8.20747 14.0561 8.91392L12.1614 9.55444ZM10.4745 4.52958C10.1037 4.86005 9.56813 4.79517 9.27072 4.47546L10.7351 3.11323C10.3327 2.6807 9.62969 2.60349 9.14384 3.0365L10.4745 4.52958Z" fill="#696D6E"/>
<path d="M11.4581 12.1075L10.8311 11.3284L10.8311 11.3284L11.4581 12.1075ZM8.04628 17.0817L7.05717 16.9345L7.05717 16.9345L8.04628 17.0817ZM12.5421 12.1075L13.169 11.3284L12.5421 12.1075ZM15.9537 17.0817L14.9646 17.2289L14.9646 17.2289L15.9537 17.0817ZM15.958 17.1157L14.9634 17.2196C14.9648 17.233 14.9665 17.2465 14.9685 17.2598L15.958 17.1157ZM8.04197 17.1157L9.03153 17.2598C9.03347 17.2464 9.03515 17.233 9.03655 17.2196L8.04197 17.1157ZM10.8311 11.3284C10.2968 11.7583 9.46733 12.4902 8.71968 13.429C7.97947 14.3584 7.26126 15.5631 7.05717 16.9345L9.03538 17.2289C9.16671 16.3464 9.65301 15.4675 10.2842 14.675C10.9078 13.8918 11.6165 13.2635 12.085 12.8865L10.8311 11.3284ZM13.169 11.3284C12.4825 10.776 11.5176 10.7759 10.8311 11.3284L12.085 12.8865C12.067 12.901 12.0365 12.9141 12.0001 12.9141C11.9636 12.9141 11.9331 12.901 11.9151 12.8865L13.169 11.3284ZM16.9428 16.9345C16.7387 15.5631 16.0206 14.3585 15.2804 13.429C14.5328 12.4903 13.7033 11.7584 13.169 11.3284L11.9151 12.8865C12.3836 13.2635 13.0922 13.8918 13.7159 14.675C14.347 15.4674 14.8333 16.3464 14.9646 17.2289L16.9428 16.9345ZM16.9526 17.0119C16.9499 16.986 16.9467 16.9602 16.9428 16.9345L14.9646 17.2289C14.9642 17.2258 14.9638 17.2227 14.9634 17.2196L16.9526 17.0119ZM14.9685 17.2598C14.9892 17.4021 15 17.5481 15 17.6972H17C17 17.4513 16.9822 17.209 16.9476 16.9716L14.9685 17.2598ZM15 17.6972C15 19.3541 13.6569 20.6972 12 20.6972V22.6972C14.7614 22.6972 17 20.4587 17 17.6972H15ZM12 20.6972C10.3431 20.6972 9 19.3541 9 17.6972H7C7 20.4587 9.23858 22.6972 12 22.6972V20.6972ZM9 17.6972C9 17.5481 9.01081 17.4021 9.03153 17.2598L7.05241 16.9716C7.01783 17.209 7 17.4513 7 17.6972H9ZM7.05717 16.9345C7.05334 16.9602 7.05008 16.986 7.04738 17.0118L9.03655 17.2196C9.03623 17.2228 9.03583 17.2258 9.03538 17.2289L7.05717 16.9345Z" fill="#696D6E"/>
</svg>
