<svg width="86" height="42" viewBox="0 0 86 42" fill="none" xmlns="http://www.w3.org/2000/svg">
<g clip-path="url(#clip0_1770_1148)">
<path d="M14.8787 18.5153C15.8482 18.5153 16.7338 18.7204 17.5356 19.1306C18.356 19.5221 18.9992 20.0815 19.4654 20.8086C19.9501 21.5358 20.1925 22.3468 20.1925 23.2418C20.1925 25.6097 19.1204 27.1013 16.9762 27.7166V27.8285C19.4187 28.3878 20.64 29.9913 20.64 32.6389C20.64 33.6457 20.3883 34.5407 19.8849 35.3238C19.4001 36.0882 18.7289 36.6849 17.8712 37.1137C17.0135 37.5425 16.072 37.7569 15.0465 37.7569H2.06958V18.5153H14.8787ZM8.25039 26.0106H12.5014C12.9117 26.0106 13.2473 25.8707 13.5083 25.5911C13.788 25.2927 13.9278 24.9291 13.9278 24.5003V24.2207C13.9278 23.8104 13.788 23.4655 13.5083 23.1859C13.2286 22.8875 12.893 22.7384 12.5014 22.7384H8.25039V26.0106ZM8.25039 33.2821H12.9489C13.3591 33.2821 13.6948 33.1423 13.9558 32.8626C14.2354 32.5643 14.3753 32.2007 14.3753 31.7719V31.4922C14.3753 31.0634 14.2354 30.7091 13.9558 30.4294C13.6948 30.1311 13.3591 29.982 12.9489 29.982H8.25039V33.2821ZM33.4021 18.1797C36.7209 18.1797 39.2846 19.028 41.0932 20.7247C42.9018 22.4214 43.806 24.8919 43.806 28.1361C43.806 31.3803 42.9018 33.8508 41.0932 35.5475C39.2846 37.2442 36.7209 38.0925 33.4021 38.0925C30.0833 38.0925 27.5196 37.2535 25.7111 35.5755C23.9211 33.8787 23.0262 31.399 23.0262 28.1361C23.0262 24.8732 23.9211 22.4028 25.7111 20.7247C27.5196 19.028 30.0833 18.1797 33.4021 18.1797ZM33.4021 22.7943C32.0783 22.7943 31.0715 23.1952 30.3816 23.9969C29.6917 24.7987 29.3468 25.88 29.3468 27.2412V29.0311C29.3468 30.3922 29.6917 31.4735 30.3816 32.2753C31.0715 33.0771 32.0783 33.4779 33.4021 33.4779C34.7259 33.4779 35.7327 33.0771 36.4226 32.2753C37.1311 31.4735 37.4854 30.3922 37.4854 29.0311V27.2412C37.4854 25.88 37.1311 24.7987 36.4226 23.9969C35.7327 23.1952 34.7259 22.7943 33.4021 22.7943ZM55.2169 18.1797C57.6781 18.1797 59.7011 18.6831 61.2859 19.6899C62.8707 20.6781 63.6818 22.1511 63.7191 24.1088V24.4444H57.9298V24.3325C57.9298 23.7732 57.7247 23.307 57.3145 22.9342C56.9044 22.5613 56.2797 22.3748 55.4407 22.3748C54.6203 22.3748 53.9864 22.496 53.5389 22.7384C53.1101 22.9808 52.8956 23.2791 52.8956 23.6333C52.8956 24.1368 53.194 24.5096 53.7906 24.752C54.3873 24.9945 55.3475 25.2462 56.6713 25.5072C58.2188 25.8241 59.4867 26.1597 60.4748 26.514C61.4817 26.8496 62.358 27.409 63.1038 28.192C63.8496 28.9751 64.2318 30.0379 64.2504 31.3803C64.2504 33.655 63.4767 35.3424 61.9291 36.4425C60.4003 37.5425 58.3493 38.0925 55.7763 38.0925C52.7745 38.0925 50.4345 37.5891 48.7565 36.5823C47.0971 35.5755 46.2674 33.7948 46.2674 31.2405H52.1126C52.1126 32.2101 52.3643 32.8626 52.8677 33.1982C53.3711 33.5152 54.1542 33.6737 55.2169 33.6737C56 33.6737 56.6433 33.5898 57.1467 33.422C57.6688 33.2542 57.9298 32.9092 57.9298 32.3872C57.9298 31.921 57.6408 31.5761 57.0628 31.3524C56.5035 31.11 55.5805 30.8583 54.294 30.5972C52.7278 30.2616 51.432 29.9167 50.4065 29.5625C49.3811 29.1896 48.4862 28.5836 47.7217 27.7446C46.9572 26.9055 46.575 25.7682 46.575 24.3325C46.575 22.2257 47.3861 20.6781 49.0082 19.6899C50.649 18.6831 52.7185 18.1797 55.2169 18.1797ZM75.4003 18.1797C77.8614 18.1797 79.8849 18.6831 81.4693 19.6899C83.0543 20.6781 83.8654 22.1511 83.9024 24.1088V24.4444H78.1132V24.3325C78.1132 23.7732 77.9083 23.307 77.4979 22.9342C77.0881 22.5613 76.4631 22.3748 75.6241 22.3748C74.8039 22.3748 74.1697 22.496 73.7223 22.7384C73.2937 22.9808 73.079 23.2791 73.079 23.6333C73.079 24.1368 73.3776 24.5096 73.974 24.752C74.5711 24.9945 75.5311 25.2462 76.8546 25.5072C78.4026 25.8241 79.6702 26.1597 80.6582 26.514C81.665 26.8496 82.5418 27.409 83.2871 28.192C84.0332 28.9751 84.4156 30.0379 84.4338 31.3803C84.4338 33.655 83.6605 35.3424 82.1125 36.4425C80.5841 37.5425 78.5327 38.0925 75.9597 38.0925C72.9581 38.0925 70.6179 37.5891 68.94 36.5823C67.2807 35.5755 66.4509 33.7948 66.4509 31.2405H72.2959C72.2959 32.2101 72.5476 32.8626 73.051 33.1982C73.5545 33.5152 74.3375 33.6737 75.4003 33.6737C76.1834 33.6737 76.8267 33.5898 77.3301 33.422C77.8524 33.2542 78.1132 32.9092 78.1132 32.3872C78.1132 31.921 77.8244 31.5761 77.2462 31.3524C76.6868 31.11 75.7639 30.8583 74.4774 30.5972C72.9112 30.2616 71.6156 29.9167 70.5899 29.5625C69.5646 29.1896 68.6697 28.5836 67.9052 27.7446C67.1408 26.9055 66.7586 25.7682 66.7586 24.3325C66.7586 22.2257 67.5696 20.6781 69.1917 19.6899C70.8325 18.6831 72.9021 18.1797 75.4003 18.1797Z" fill="#1549B5"/>
<path d="M10.399 14.4827L5.52272 8.9069V14.4827H2.09753V2.9972H5.354L10.2303 8.65649V2.9972H13.6554V14.4827H10.399ZM23.3237 2.79688C25.326 2.79688 26.8727 3.30326 27.9638 4.31604C29.0549 5.32881 29.6004 6.80345 29.6004 8.73996C29.6004 10.6765 29.0549 12.1511 27.9638 13.1639C26.8727 14.1767 25.326 14.6831 23.3237 14.6831C21.3215 14.6831 19.7748 14.1822 18.6837 13.1806C17.6038 12.1678 17.0639 10.6876 17.0639 8.73996C17.0639 6.79232 17.6038 5.31768 18.6837 4.31604C19.7748 3.30326 21.3215 2.79688 23.3237 2.79688ZM23.3237 5.5514C22.5251 5.5514 21.9177 5.79068 21.5015 6.26924C21.0853 6.74781 20.8772 7.39331 20.8772 8.20575V9.27417C20.8772 10.0866 21.0853 10.7321 21.5015 11.2107C21.9177 11.6892 22.5251 11.9285 23.3237 11.9285C24.1224 11.9285 24.7298 11.6892 25.146 11.2107C25.5734 10.7321 25.7872 10.0866 25.7872 9.27417V8.20575C25.7872 7.39331 25.5734 6.74781 25.146 6.26924C24.7298 5.79068 24.1224 5.5514 23.3237 5.5514ZM41.452 14.4827L39.9503 7.48791H39.8828L38.3811 14.4827H34.281L31.5645 2.9972H35.4453L36.7782 9.50789H36.8457L38.1618 2.9972H41.8401L43.2405 9.50789H43.308L44.5566 2.9972H48.2686L46.9104 8.73996L45.5521 14.4827H41.452ZM63.0494 2.9972C67.1101 2.9972 69.1405 4.91146 69.1405 8.73996C69.1405 12.5685 67.1101 14.4827 63.0494 14.4827H58.0213V2.9972H63.0494ZM61.7502 11.7282H62.9819C64.5455 11.7282 65.3272 10.8991 65.3272 9.24079V8.23914C65.3272 6.58086 64.5455 5.75173 62.9819 5.75173H61.7502V11.7282ZM78.3249 2.79688C80.3271 2.79688 81.8738 3.30326 82.9649 4.31604C84.056 5.32881 84.6016 6.80345 84.6016 8.73996C84.6016 10.6765 84.056 12.1511 82.9649 13.1639C81.8738 14.1767 80.3271 14.6831 78.3249 14.6831C76.3227 14.6831 74.776 14.1822 73.6849 13.1806C72.605 12.1678 72.0651 10.6876 72.0651 8.73996C72.0651 6.79232 72.605 5.31768 73.6849 4.31604C74.776 3.30326 76.3227 2.79688 78.3249 2.79688ZM78.3249 5.5514C77.5262 5.5514 76.9188 5.79068 76.5026 6.26924C76.0864 6.74781 75.8783 7.39331 75.8783 8.20575V9.27417C75.8783 10.0866 76.0864 10.7321 76.5026 11.2107C76.9188 11.6892 77.5262 11.9285 78.3249 11.9285C79.1235 11.9285 79.731 11.6892 80.1472 11.2107C80.5746 10.7321 80.7883 10.0866 80.7883 9.27417V8.20575C80.7883 7.39331 80.5746 6.74781 80.1472 6.26924C79.731 5.79068 79.1235 5.5514 78.3249 5.5514Z" fill="#1549B5"/>
<mask id="path-3-inside-1_1770_1148" fill="white">
<path d="M16.3268 18.5096C17.298 18.5096 18.1851 18.7113 18.9882 19.1146C19.8099 19.4995 20.4543 20.0494 20.9212 20.7643C21.4068 21.4792 21.6496 22.2766 21.6496 23.1565C21.6496 25.4845 20.5757 26.9509 18.4279 27.5559V27.6658C20.8745 28.2158 22.0978 29.7922 22.0978 32.3952C22.0978 33.385 21.8457 34.2649 21.3414 35.0348C20.8559 35.7863 20.1835 36.373 19.3244 36.7946C18.4652 37.2161 17.5221 37.427 16.4949 37.427H3.49591V18.5096H16.3268ZM9.68722 25.8786H13.9455C14.3564 25.8786 14.6926 25.7411 14.954 25.4662C15.2342 25.1728 15.3743 24.8154 15.3743 24.3938V24.1188C15.3743 23.7155 15.2342 23.3765 14.954 23.1015C14.6739 22.8082 14.3377 22.6616 13.9455 22.6616H9.68722V25.8786ZM9.68722 33.0276H14.3937C14.8046 33.0276 15.1408 32.8901 15.4023 32.6151C15.6824 32.3218 15.8225 31.9644 15.8225 31.5428V31.2678C15.8225 30.8463 15.6824 30.4979 15.4023 30.223C15.1408 29.9297 14.8046 29.7831 14.3937 29.7831H9.68722V33.0276ZM34.8816 18.1797C38.2061 18.1797 40.7741 19.0137 42.5857 20.6818C44.3974 22.35 45.3032 24.7788 45.3032 27.9683C45.3032 31.1579 44.3974 33.5867 42.5857 35.2548C40.7741 36.9229 38.2061 37.7569 34.8816 37.7569C31.5572 37.7569 28.9892 36.932 27.1775 35.2823C25.3846 33.6142 24.4881 31.1762 24.4881 27.9683C24.4881 24.7604 25.3846 22.3316 27.1775 20.6818C28.9892 19.0137 31.5572 18.1797 34.8816 18.1797ZM34.8816 22.7165C33.5556 22.7165 32.5471 23.1106 31.856 23.8989C31.165 24.6871 30.8195 25.7503 30.8195 27.0884V28.8482C30.8195 30.1863 31.165 31.2495 31.856 32.0377C32.5471 32.826 33.5556 33.2201 34.8816 33.2201C36.2077 33.2201 37.2162 32.826 37.9073 32.0377C38.6169 31.2495 38.9718 30.1863 38.9718 28.8482V27.0884C38.9718 25.7503 38.6169 24.6871 37.9073 23.8989C37.2162 23.1106 36.2077 22.7165 34.8816 22.7165ZM56.7335 18.1797C59.1988 18.1797 61.2253 18.6746 62.8128 19.6645C64.4003 20.636 65.2127 22.0841 65.2501 24.0089V24.3388H59.451V24.2288C59.451 23.6789 59.2455 23.2206 58.8346 22.854C58.4238 22.4874 57.7981 22.3041 56.9576 22.3041C56.1359 22.3041 55.5009 22.4232 55.0526 22.6616C54.6231 22.8999 54.4083 23.1931 54.4083 23.5414C54.4083 24.0364 54.7071 24.403 55.3048 24.6413C55.9024 24.8796 56.8643 25.1271 58.1903 25.3837C59.7405 25.6953 61.0105 26.0252 62.0003 26.3735C63.0089 26.7035 63.8867 27.2534 64.6337 28.0233C65.3808 28.7932 65.7637 29.838 65.7823 31.1579C65.7823 33.3942 65.0073 35.0532 63.4571 36.1347C61.9257 37.2161 59.8712 37.7569 57.2938 37.7569C54.2869 37.7569 51.943 37.262 50.2621 36.2721C48.5999 35.2823 47.7687 33.5317 47.7687 31.0204H53.6239C53.6239 31.9736 53.876 32.6151 54.3803 32.9451C54.8845 33.2567 55.6689 33.4125 56.7335 33.4125C57.5179 33.4125 58.1623 33.33 58.6665 33.1651C59.1895 33.0001 59.451 32.661 59.451 32.1477C59.451 31.6894 59.1615 31.3503 58.5825 31.1304C58.0222 30.892 57.0977 30.6446 55.809 30.388C54.2402 30.058 52.9422 29.7189 51.9149 29.3706C50.8878 29.004 49.9913 28.4082 49.2255 27.5834C48.4598 26.7585 48.0769 25.6403 48.0769 24.2288C48.0769 22.1575 48.8893 20.636 50.5142 19.6645C52.1578 18.6746 54.2309 18.1797 56.7335 18.1797ZM76.9511 18.1797C79.4165 18.1797 81.4433 18.6746 83.0304 19.6645C84.6181 20.636 85.4306 22.0841 85.4677 24.0089V24.3388H79.6686V24.2288C79.6686 23.6789 79.4634 23.2206 79.0523 22.854C78.6418 22.4874 78.0157 22.3041 77.1753 22.3041C76.3537 22.3041 75.7185 22.4232 75.2702 22.6616C74.8409 22.8999 74.6259 23.1931 74.6259 23.5414C74.6259 24.0364 74.925 24.403 75.5224 24.6413C76.1205 24.8796 77.0821 25.1271 78.4079 25.3837C79.9585 25.6953 81.2283 26.0252 82.218 26.3735C83.2265 26.7035 84.1048 27.2534 84.8514 28.0233C85.5987 28.7932 85.9818 29.838 86 31.1579C86 33.3942 85.2254 35.0532 83.6747 36.1347C82.1437 37.2161 80.0888 37.7569 77.5114 37.7569C74.5047 37.7569 72.1606 37.262 70.4799 36.2721C68.8177 35.2823 67.9866 33.5317 67.9866 31.0204H73.8415C73.8415 31.9736 74.0936 32.6151 74.5979 32.9451C75.1022 33.2567 75.8866 33.4125 76.9511 33.4125C77.7356 33.4125 78.3799 33.33 78.8842 33.1651C79.4074 33.0001 79.6686 32.661 79.6686 32.1477C79.6686 31.6894 79.3793 31.3503 78.8001 31.1304C78.2398 30.892 77.3153 30.6446 76.0266 30.388C74.4578 30.058 73.16 29.7189 72.1326 29.3706C71.1055 29.004 70.2091 28.4082 69.4433 27.5834C68.6776 26.7585 68.2947 25.6403 68.2947 24.2288C68.2947 22.1575 69.1072 20.636 70.732 19.6645C72.3756 18.6746 74.4487 18.1797 76.9511 18.1797Z"/>
</mask>
<path d="M16.3268 18.5096C17.298 18.5096 18.1851 18.7113 18.9882 19.1146C19.8099 19.4995 20.4543 20.0494 20.9212 20.7643C21.4068 21.4792 21.6496 22.2766 21.6496 23.1565C21.6496 25.4845 20.5757 26.9509 18.4279 27.5559V27.6658C20.8745 28.2158 22.0978 29.7922 22.0978 32.3952C22.0978 33.385 21.8457 34.2649 21.3414 35.0348C20.8559 35.7863 20.1835 36.373 19.3244 36.7946C18.4652 37.2161 17.5221 37.427 16.4949 37.427H3.49591V18.5096H16.3268ZM9.68722 25.8786H13.9455C14.3564 25.8786 14.6926 25.7411 14.954 25.4662C15.2342 25.1728 15.3743 24.8154 15.3743 24.3938V24.1188C15.3743 23.7155 15.2342 23.3765 14.954 23.1015C14.6739 22.8082 14.3377 22.6616 13.9455 22.6616H9.68722V25.8786ZM9.68722 33.0276H14.3937C14.8046 33.0276 15.1408 32.8901 15.4023 32.6151C15.6824 32.3218 15.8225 31.9644 15.8225 31.5428V31.2678C15.8225 30.8463 15.6824 30.4979 15.4023 30.223C15.1408 29.9297 14.8046 29.7831 14.3937 29.7831H9.68722V33.0276ZM34.8816 18.1797C38.2061 18.1797 40.7741 19.0137 42.5857 20.6818C44.3974 22.35 45.3032 24.7788 45.3032 27.9683C45.3032 31.1579 44.3974 33.5867 42.5857 35.2548C40.7741 36.9229 38.2061 37.7569 34.8816 37.7569C31.5572 37.7569 28.9892 36.932 27.1775 35.2823C25.3846 33.6142 24.4881 31.1762 24.4881 27.9683C24.4881 24.7604 25.3846 22.3316 27.1775 20.6818C28.9892 19.0137 31.5572 18.1797 34.8816 18.1797ZM34.8816 22.7165C33.5556 22.7165 32.5471 23.1106 31.856 23.8989C31.165 24.6871 30.8195 25.7503 30.8195 27.0884V28.8482C30.8195 30.1863 31.165 31.2495 31.856 32.0377C32.5471 32.826 33.5556 33.2201 34.8816 33.2201C36.2077 33.2201 37.2162 32.826 37.9073 32.0377C38.6169 31.2495 38.9718 30.1863 38.9718 28.8482V27.0884C38.9718 25.7503 38.6169 24.6871 37.9073 23.8989C37.2162 23.1106 36.2077 22.7165 34.8816 22.7165ZM56.7335 18.1797C59.1988 18.1797 61.2253 18.6746 62.8128 19.6645C64.4003 20.636 65.2127 22.0841 65.2501 24.0089V24.3388H59.451V24.2288C59.451 23.6789 59.2455 23.2206 58.8346 22.854C58.4238 22.4874 57.7981 22.3041 56.9576 22.3041C56.1359 22.3041 55.5009 22.4232 55.0526 22.6616C54.6231 22.8999 54.4083 23.1931 54.4083 23.5414C54.4083 24.0364 54.7071 24.403 55.3048 24.6413C55.9024 24.8796 56.8643 25.1271 58.1903 25.3837C59.7405 25.6953 61.0105 26.0252 62.0003 26.3735C63.0089 26.7035 63.8867 27.2534 64.6337 28.0233C65.3808 28.7932 65.7637 29.838 65.7823 31.1579C65.7823 33.3942 65.0073 35.0532 63.4571 36.1347C61.9257 37.2161 59.8712 37.7569 57.2938 37.7569C54.2869 37.7569 51.943 37.262 50.2621 36.2721C48.5999 35.2823 47.7687 33.5317 47.7687 31.0204H53.6239C53.6239 31.9736 53.876 32.6151 54.3803 32.9451C54.8845 33.2567 55.6689 33.4125 56.7335 33.4125C57.5179 33.4125 58.1623 33.33 58.6665 33.1651C59.1895 33.0001 59.451 32.661 59.451 32.1477C59.451 31.6894 59.1615 31.3503 58.5825 31.1304C58.0222 30.892 57.0977 30.6446 55.809 30.388C54.2402 30.058 52.9422 29.7189 51.9149 29.3706C50.8878 29.004 49.9913 28.4082 49.2255 27.5834C48.4598 26.7585 48.0769 25.6403 48.0769 24.2288C48.0769 22.1575 48.8893 20.636 50.5142 19.6645C52.1578 18.6746 54.2309 18.1797 56.7335 18.1797ZM76.9511 18.1797C79.4165 18.1797 81.4433 18.6746 83.0304 19.6645C84.6181 20.636 85.4306 22.0841 85.4677 24.0089V24.3388H79.6686V24.2288C79.6686 23.6789 79.4634 23.2206 79.0523 22.854C78.6418 22.4874 78.0157 22.3041 77.1753 22.3041C76.3537 22.3041 75.7185 22.4232 75.2702 22.6616C74.8409 22.8999 74.6259 23.1931 74.6259 23.5414C74.6259 24.0364 74.925 24.403 75.5224 24.6413C76.1205 24.8796 77.0821 25.1271 78.4079 25.3837C79.9585 25.6953 81.2283 26.0252 82.218 26.3735C83.2265 26.7035 84.1048 27.2534 84.8514 28.0233C85.5987 28.7932 85.9818 29.838 86 31.1579C86 33.3942 85.2254 35.0532 83.6747 36.1347C82.1437 37.2161 80.0888 37.7569 77.5114 37.7569C74.5047 37.7569 72.1606 37.262 70.4799 36.2721C68.8177 35.2823 67.9866 33.5317 67.9866 31.0204H73.8415C73.8415 31.9736 74.0936 32.6151 74.5979 32.9451C75.1022 33.2567 75.8866 33.4125 76.9511 33.4125C77.7356 33.4125 78.3799 33.33 78.8842 33.1651C79.4074 33.0001 79.6686 32.661 79.6686 32.1477C79.6686 31.6894 79.3793 31.3503 78.8001 31.1304C78.2398 30.892 77.3153 30.6446 76.0266 30.388C74.4578 30.058 73.16 29.7189 72.1326 29.3706C71.1055 29.004 70.2091 28.4082 69.4433 27.5834C68.6776 26.7585 68.2947 25.6403 68.2947 24.2288C68.2947 22.1575 69.1072 20.636 70.732 19.6645C72.3756 18.6746 74.4487 18.1797 76.9511 18.1797Z" fill="white" stroke="#1549B5" stroke-width="2" mask="url(#path-3-inside-1_1770_1148)"/>
<path d="M12.1286 8.65649V3.4972H14.5538V13.9827H12.0243L7.29748 8.57775L6.4211 7.57565V8.9069V13.9827H3.99591V3.4972H6.52319L11.2498 8.98287L12.1286 10.0028V8.65649ZM20.4221 4.68262L20.4222 4.6825C21.3928 3.78159 22.8017 3.29688 24.7221 3.29688C26.6425 3.29688 28.0514 3.78159 29.022 4.6825C29.9828 5.57433 30.4988 6.89841 30.4988 8.73996C30.4988 10.5815 29.9828 11.9056 29.022 12.7974C28.0514 13.6983 26.6425 14.1831 24.7221 14.1831C22.8016 14.1831 21.3926 13.7038 20.4221 12.814C19.4734 11.9231 18.9623 10.5939 18.9623 8.73996C18.9623 6.88443 19.4742 5.56181 20.4221 4.68262ZM38.7342 9.60696L39.9692 3.4972H42.8346L44.1501 9.61304L44.235 10.0079H44.6389H44.7064H45.1196L45.1974 9.60206L46.3682 3.4972H49.035L46.5549 13.9827H43.2544L41.8376 7.38296L41.7527 6.98791H41.3487H41.2812H40.8772L40.7923 7.38296L39.3755 13.9827H36.075L33.5949 3.4972H36.4356L37.6868 9.60818L37.7686 10.0079H38.1766H38.2441H38.6531L38.7342 9.60696ZM62.6486 11.7282V12.2282H63.1486H64.3803C65.2469 12.2282 65.9867 11.997 66.5031 11.4494C67.0142 10.9072 67.2256 10.1399 67.2256 9.24079V8.23914C67.2256 7.34002 67.0142 6.57269 66.5031 6.03057C65.9867 5.48292 65.2469 5.25173 64.3803 5.25173H63.1486H62.6486V5.75173V11.7282ZM75.4233 4.68262L75.4234 4.6825C76.394 3.78159 77.8029 3.29688 79.7233 3.29688C81.6437 3.29688 83.0526 3.78159 84.0232 4.6825C84.984 5.57433 85.5 6.89841 85.5 8.73996C85.5 10.5815 84.984 11.9056 84.0232 12.7974C83.0526 13.6983 81.6437 14.1831 79.7233 14.1831C77.8029 14.1831 76.3938 13.7038 75.4234 12.8141C74.4746 11.9231 73.9634 10.5939 73.9634 8.73996C73.9634 6.88443 74.4754 5.56181 75.4233 4.68262ZM24.7221 5.0514C23.8192 5.0514 23.0574 5.32617 22.5226 5.94113C22.0071 6.53388 21.7755 7.30749 21.7755 8.20575V9.27417C21.7755 10.1724 22.0071 10.946 22.5226 11.5388C23.0574 12.1538 23.8192 12.4285 24.7221 12.4285C25.6238 12.4285 26.3848 12.1545 26.9195 11.5413C27.4473 10.949 27.6855 10.1744 27.6855 9.27417V8.20575C27.6855 7.30552 27.4473 6.53095 26.9195 5.93864C26.3848 5.32543 25.6238 5.0514 24.7221 5.0514ZM64.4478 3.4972C66.4082 3.4972 67.7855 3.95983 68.6731 4.7967C69.5552 5.62835 70.0389 6.91056 70.0389 8.73996C70.0389 10.5694 69.5552 11.8516 68.6731 12.6832C67.7855 13.5201 66.4082 13.9827 64.4478 13.9827H59.9197V3.4972H64.4478ZM79.7233 5.0514C78.8204 5.0514 78.0585 5.32617 77.5237 5.94113C77.0082 6.53388 76.7767 7.30749 76.7767 8.20575V9.27417C76.7767 10.1724 77.0082 10.946 77.5237 11.5388C78.0585 12.1538 78.8204 12.4285 79.7233 12.4285C80.6249 12.4285 81.3859 12.1545 81.9206 11.5414C82.4484 10.9491 82.6867 10.1745 82.6867 9.27417V8.20575C82.6867 7.30546 82.4484 6.53087 81.9206 5.93854C81.3859 5.3254 80.6249 5.0514 79.7233 5.0514Z" fill="white" stroke="#1549B5"/>
</g>
<defs>
<clipPath id="clip0_1770_1148">
<rect width="86" height="41.252" fill="white"/>
</clipPath>
</defs>
</svg>
