<svg width="199" height="50" viewBox="0 0 199 50" fill="none" xmlns="http://www.w3.org/2000/svg">
<path d="M15.0532 49.4859L5.63421 19.3445V48.7147L0 49.1003V1.28535L6.58041 0.899743L14.9242 29.563V1.67095L20.2573 0.899743V48.7147L15.0532 49.4859ZM32.4001 50C28.7587 50 26.1924 47.6649 24.7014 42.9949C23.2391 38.2819 22.508 32.1979 22.508 24.7429C22.508 16.8166 23.2965 10.7112 24.8735 6.42674C26.4504 2.14224 28.988 0 32.4861 0C39.1669 0 42.5072 8.16196 42.5072 24.4859C42.5072 31.8123 41.7475 37.8963 40.2278 42.7378C38.7368 47.5793 36.1275 50 32.4001 50ZM32.4861 42.4165C34.0058 42.4165 35.0093 40.9383 35.4967 37.982C35.9842 34.9829 36.2279 30.4627 36.2279 24.4216C36.2279 19.5801 35.9842 15.5741 35.4967 12.4036C35.038 9.19024 34.0344 7.58355 32.4861 7.58355C30.9378 7.58355 29.9342 9.16881 29.4755 12.3393C29.0167 15.5099 28.7873 19.5158 28.7873 24.3573C28.7873 30.4412 29.0167 34.9829 29.4755 37.982C29.9629 40.9383 30.9664 42.4165 32.4861 42.4165ZM48.8652 49.1003L42.2848 1.28535L49.1663 0.899743L52.564 29.7558L56.2198 1.28535L61.3809 0.899743L64.7786 30.0771L68.8645 1.28535L74.6708 0.899743L67.7463 49.1003H61.5099L58.1122 19.6658L54.6285 49.1003H48.8652ZM75.4628 0.899743H82.0862C86.3297 0.899743 89.498 2.91346 91.5912 6.94088C93.6843 10.9683 94.7309 17.0523 94.7309 25.1928C94.7309 29.5202 94.3294 33.4833 93.5266 37.0823C92.7525 40.6812 91.5052 43.5947 89.7848 45.8226C88.0645 48.0077 85.871 49.1003 83.2044 49.1003H75.4628V0.899743ZM82.6453 41.581C84.8244 41.581 86.3297 40.1886 87.1613 37.4036C88.0215 34.5758 88.4515 31.1054 88.4515 26.9923V24.8072C88.4515 21.8509 88.3225 19.2374 88.0645 16.9666C87.835 14.653 87.2759 12.6607 86.3871 10.9897C85.5269 9.27593 84.2223 8.41903 82.4733 8.41903H81.7421V41.581H82.6453ZM105.385 50C101.743 50 99.1771 47.6649 97.686 42.9949C96.2237 38.2819 95.4925 32.1979 95.4925 24.7429C95.4925 16.8166 96.2811 10.7112 97.858 6.42674C99.4351 2.14224 101.973 0 105.471 0C112.151 0 115.492 8.16196 115.492 24.4859C115.492 31.8123 114.732 37.8963 113.212 42.7378C111.721 47.5793 109.112 50 105.385 50ZM105.471 42.4165C106.99 42.4165 107.994 40.9383 108.481 37.982C108.969 34.9829 109.212 30.4627 109.212 24.4216C109.212 19.5801 108.969 15.5741 108.481 12.4036C108.023 9.19024 107.019 7.58355 105.471 7.58355C103.922 7.58355 102.919 9.16881 102.46 12.3393C102.001 15.5099 101.772 19.5158 101.772 24.3573C101.772 30.4412 102.001 34.9829 102.46 37.982C102.948 40.9383 103.951 42.4165 105.471 42.4165ZM117.721 0.899743H124.947C128.846 0.899743 131.684 2.03513 133.463 4.30592C135.239 6.5767 136.129 9.57584 136.129 13.3033C136.129 15.6598 135.813 17.7378 135.183 19.5373C134.581 21.3368 133.734 22.6436 132.645 23.4576C134.022 24.5286 135.11 25.964 135.914 27.7635C136.716 29.5202 137.118 32.1337 137.118 35.6041C137.118 44.6015 132.373 49.1003 122.882 49.1003H117.721V0.899743ZM125.334 20.5013C126.996 20.5013 128.229 20.0942 129.033 19.2802C129.863 18.4662 130.28 16.7952 130.28 14.2674C130.28 12.0394 129.807 10.5184 128.861 9.70437C127.943 8.84747 126.681 8.41903 125.076 8.41903H123.828V20.5013H125.334ZM125.205 41.581C127.269 41.581 128.76 40.8313 129.678 39.3316C130.594 37.7892 131.054 36.1183 131.054 34.3188C131.054 31.5338 130.551 29.6915 129.549 28.7918C128.573 27.8492 127.197 27.3779 125.42 27.3779H124.044V41.581H125.205ZM147.517 50C143.876 50 141.31 47.6649 139.818 42.9949C138.356 38.2819 137.625 32.1979 137.625 24.7429C137.625 16.8166 138.414 10.7112 139.99 6.42674C141.568 2.14224 144.105 0 147.603 0C154.284 0 157.624 8.16196 157.624 24.4859C157.624 31.8123 156.864 37.8963 155.344 42.7378C153.854 47.5793 151.245 50 147.517 50ZM147.603 42.4165C149.123 42.4165 150.127 40.9383 150.613 37.982C151.101 34.9829 151.345 30.4627 151.345 24.4216C151.345 19.5801 151.101 15.5741 150.613 12.4036C150.155 9.19024 149.151 7.58355 147.603 7.58355C146.054 7.58355 145.052 9.16881 144.592 12.3393C144.134 15.5099 143.904 19.5158 143.904 24.3573C143.904 30.4412 144.134 34.9829 144.592 37.982C145.08 40.9383 146.084 42.4165 147.603 42.4165ZM168.369 50C165.76 50 163.552 48.9289 161.745 46.7866C159.967 44.6015 158.663 41.688 157.832 38.0463L163.165 34.3188L163.681 35.6041C164.513 37.7464 165.3 39.4174 166.046 40.617C166.82 41.8166 167.781 42.4165 168.928 42.4165C169.674 42.4165 170.333 41.8808 170.906 40.8098C171.508 39.7387 171.81 38.5604 171.81 37.2751C171.81 36.0755 171.609 34.9829 171.207 33.9974C170.806 33.0119 170.29 32.2194 169.659 31.6195L164.025 26.6067C162.391 25.2356 161.086 23.5004 160.111 21.401C159.137 19.3017 158.649 16.9452 158.649 14.3316C158.649 11.5467 159.079 9.0617 159.939 6.87661C160.827 4.69152 162.018 2.99914 163.509 1.79949C165.029 0.599829 166.734 0 168.627 0C170.835 0 172.713 0.814054 174.261 2.44216C175.809 4.07028 176.956 6.49101 177.702 9.70437L172.369 13.3033C172.254 12.9606 172.01 12.1894 171.638 10.9897C171.265 9.79005 170.806 8.93317 170.261 8.41903C169.745 7.86205 169.1 7.58355 168.326 7.58355C167.38 7.58355 166.648 8.03342 166.132 8.93317C165.645 9.83291 165.401 10.9897 165.401 12.4036C165.401 13.4319 165.588 14.3745 165.96 15.2314C166.362 16.0454 166.835 16.6881 167.38 17.1594L172.584 21.7224C176.426 24.9785 178.448 29.2631 178.648 34.5758C178.648 37.6179 178.19 40.3171 177.272 42.6735C176.383 44.9871 175.15 46.7866 173.573 48.072C172.025 49.3573 170.289 50 168.369 50ZM188.721 50C186.112 50 183.904 48.9289 182.097 46.7866C180.32 44.6015 179.015 41.688 178.184 38.0463L183.517 34.3188L184.033 35.6041C184.865 37.7464 185.654 39.4174 186.398 40.617C187.172 41.8166 188.133 42.4165 189.28 42.4165C190.026 42.4165 190.686 41.8808 191.258 40.8098C191.86 39.7387 192.162 38.5604 192.162 37.2751C192.162 36.0755 191.961 34.9829 191.559 33.9974C191.159 33.0119 190.643 32.2194 190.011 31.6195L184.377 26.6067C182.743 25.2356 181.439 23.5004 180.463 21.401C179.489 19.3017 179.001 16.9452 179.001 14.3316C179.001 11.5467 179.431 9.0617 180.291 6.87661C181.181 4.69152 182.37 2.99914 183.861 1.79949C185.381 0.599829 187.086 0 188.979 0C191.187 0 193.065 0.814054 194.613 2.44216C196.161 4.07028 197.309 6.49101 198.054 9.70437L192.721 13.3033C192.606 12.9606 192.363 12.1894 191.989 10.9897C191.617 9.79005 191.159 8.93317 190.613 8.41903C190.097 7.86205 189.452 7.58355 188.678 7.58355C187.732 7.58355 187 8.03342 186.484 8.93317C185.998 9.83291 185.753 10.9897 185.753 12.4036C185.753 13.4319 185.94 14.3745 186.312 15.2314C186.714 16.0454 187.187 16.6881 187.732 17.1594L192.936 21.7224C196.778 24.9785 198.8 29.2631 199 34.5758C199 37.6179 198.542 40.3171 197.624 42.6735C196.735 44.9871 195.503 46.7866 193.925 48.072C192.377 49.3573 190.643 50 188.721 50Z" fill="#11386F"/>
</svg>
