<svg width="83" height="35" viewBox="0 0 83 35" fill="none" xmlns="http://www.w3.org/2000/svg">
<path d="M12.908 15.7307C13.885 15.7307 14.7775 15.9326 15.5854 16.3363C16.4121 16.7217 17.0603 17.2723 17.5301 17.988C18.0185 18.7038 18.2628 19.5021 18.2628 20.383C18.2628 22.7137 17.1825 24.1819 15.0217 24.7875V24.8976C17.4831 25.4481 18.7138 27.0264 18.7138 29.6324C18.7138 30.6234 18.4601 31.5043 17.9528 32.2751C17.4643 33.0275 16.7879 33.6148 15.9236 34.0369C15.0593 34.459 14.1105 34.6701 13.0771 34.6701H0V15.7307H12.908ZM6.22852 23.1083H10.5124C10.9258 23.1083 11.264 22.9706 11.527 22.6953C11.8088 22.4017 11.9497 22.0438 11.9497 21.6217V21.3465C11.9497 20.9427 11.8088 20.6032 11.527 20.3279C11.2452 20.0343 10.907 19.8875 10.5124 19.8875H6.22852V23.1083ZM6.22852 30.2656H10.9633C11.3767 30.2656 11.7149 30.1279 11.9779 29.8526C12.2598 29.559 12.4007 29.2011 12.4007 28.779V28.5038C12.4007 28.0817 12.2598 27.733 11.9779 27.4577C11.7149 27.164 11.3767 27.0172 10.9633 27.0172H6.22852V30.2656ZM31.5744 15.4004C34.9188 15.4004 37.5023 16.2354 39.3248 17.9054C41.1474 19.5755 42.0586 22.0071 42.0586 25.2004C42.0586 28.3937 41.1474 30.8253 39.3248 32.4953C37.5023 34.1654 34.9188 35.0004 31.5744 35.0004C28.2299 35.0004 25.6465 34.1745 23.824 32.5229C22.0202 30.8528 21.1184 28.412 21.1184 25.2004C21.1184 21.9888 22.0202 19.5571 23.824 17.9054C25.6465 16.2354 28.2299 15.4004 31.5744 15.4004ZM31.5744 19.9425C30.2404 19.9425 29.2258 20.3371 28.5306 21.1262C27.8354 21.9154 27.4878 22.9798 27.4878 24.3195V26.0813C27.4878 27.421 27.8354 28.4854 28.5306 29.2745C29.2258 30.0637 30.2404 30.4583 31.5744 30.4583C32.9084 30.4583 33.923 30.0637 34.6182 29.2745C35.3321 28.4854 35.6892 27.421 35.6892 26.0813V24.3195C35.6892 22.9798 35.3321 21.9154 34.6182 21.1262C33.923 20.3371 32.9084 19.9425 31.5744 19.9425ZM53.5576 15.4004C56.0377 15.4004 58.0764 15.8959 59.6734 16.8869C61.2705 17.8595 62.0878 19.3094 62.1254 21.2363V21.5667H56.2914V21.4566C56.2914 20.906 56.0847 20.4472 55.6714 20.0802C55.2581 19.7131 54.6286 19.5296 53.7831 19.5296C52.9564 19.5296 52.3175 19.6489 51.8666 19.8875C51.4345 20.1261 51.2184 20.4197 51.2184 20.7684C51.2184 21.2639 51.519 21.6309 52.1203 21.8695C52.7216 22.1081 53.6892 22.3558 55.0232 22.6128C56.5827 22.9247 57.8603 23.255 58.8561 23.6038C59.8707 23.9341 60.7538 24.4847 61.5053 25.2554C62.2569 26.0262 62.6421 27.0723 62.6608 28.3937C62.6608 30.6326 61.8811 32.2935 60.3216 33.3762C58.781 34.459 56.7142 35.0004 54.1213 35.0004C51.0963 35.0004 48.7383 34.5049 47.0473 33.5139C45.3751 32.5229 44.5389 30.7702 44.5389 28.256H50.4293C50.4293 29.2103 50.6829 29.8526 51.1902 30.183C51.6975 30.4949 52.4866 30.651 53.5576 30.651C54.3467 30.651 54.995 30.5684 55.5023 30.4032C56.0284 30.238 56.2914 29.8985 56.2914 29.3847C56.2914 28.9258 56.0002 28.5863 55.4177 28.3661C54.854 28.1275 53.924 27.8798 52.6276 27.6229C51.0493 27.2925 49.7435 26.953 48.7101 26.6043C47.6767 26.2373 46.7749 25.6408 46.0045 24.815C45.2342 23.9892 44.849 22.8697 44.849 21.4566C44.849 19.3828 45.6663 17.8595 47.3009 16.8869C48.9544 15.8959 51.0399 15.4004 53.5576 15.4004ZM73.8968 15.4004C76.3769 15.4004 78.416 15.8959 80.0126 16.8869C81.6098 17.8595 82.4272 19.3094 82.4645 21.2363V21.5667H76.6306V21.4566C76.6306 20.906 76.4241 20.4472 76.0105 20.0802C75.5976 19.7131 74.9677 19.5296 74.1222 19.5296C73.2958 19.5296 72.6567 19.6489 72.2058 19.8875C71.7739 20.1261 71.5575 20.4197 71.5575 20.7684C71.5575 21.2639 71.8584 21.6309 72.4594 21.8695C73.0611 22.1081 74.0285 22.3558 75.3623 22.6128C76.9223 22.9247 78.1997 23.255 79.1952 23.6038C80.2098 23.9341 81.0934 24.4847 81.8445 25.2554C82.5963 26.0262 82.9817 27.0723 83 28.3937C83 30.6326 82.2207 32.2935 80.6608 33.3762C79.1206 34.459 77.0533 35.0004 74.4604 35.0004C71.4357 35.0004 69.0774 34.5049 67.3866 33.5139C65.7144 32.5229 64.8783 30.7702 64.8783 28.256H70.7684C70.7684 29.2103 71.0221 29.8526 71.5294 30.183C72.0367 30.4949 72.8258 30.651 73.8968 30.651C74.6859 30.651 75.3341 30.5684 75.8414 30.4032C76.3677 30.238 76.6306 29.8985 76.6306 29.3847C76.6306 28.9258 76.3396 28.5863 75.7569 28.3661C75.1932 28.1275 74.2632 27.8798 72.9667 27.6229C71.3884 27.2925 70.0829 26.953 69.0492 26.6043C68.016 26.2373 67.1142 25.6408 66.3438 24.815C65.5735 23.9892 65.1883 22.8697 65.1883 21.4566C65.1883 19.3828 66.0056 17.8595 67.6403 16.8869C69.2937 15.8959 71.3793 15.4004 73.8968 15.4004Z" fill="white"/>
<path d="M8.35135 11.6994L3.44578 6.11714V11.6994H0V0.200562H3.27604L8.1816 5.86643V0.200562H11.6274V11.6994H8.35135ZM21.3538 0C23.3681 0 24.924 0.506976 26.0217 1.52093C27.1194 2.53488 27.6682 4.01124 27.6682 5.95C27.6682 7.88876 27.1194 9.36512 26.0217 10.3791C24.924 11.393 23.3681 11.9 21.3538 11.9C19.3395 11.9 17.7835 11.3986 16.6859 10.3958C15.5995 9.38184 15.0563 7.89991 15.0563 5.95C15.0563 4.00009 15.5995 2.52374 16.6859 1.52093C17.7835 0.506976 19.3395 0 21.3538 0ZM21.3538 2.75772C20.5503 2.75772 19.9393 2.99729 19.5206 3.4764C19.1019 3.95552 18.8925 4.60178 18.8925 5.41517V6.48483C18.8925 7.29822 19.1019 7.94448 19.5206 8.4236C19.9393 8.90272 20.5503 9.14227 21.3538 9.14227C22.1572 9.14227 22.7683 8.90272 23.187 8.4236C23.617 7.94448 23.832 7.29822 23.832 6.48483V5.41517C23.832 4.60178 23.617 3.95552 23.187 3.4764C22.7683 2.99729 22.1572 2.75772 21.3538 2.75772ZM39.591 11.6994L38.0803 4.69649H38.0124L36.5017 11.6994H32.377L29.6441 0.200562H33.5482L34.8892 6.71882H34.957L36.281 0.200562H39.9814L41.3903 6.71882H41.4582L42.7143 0.200562H46.4486L43.7158 11.6994H39.591ZM61.3183 0.200562C65.4034 0.200562 67.446 2.11704 67.446 5.95C67.446 9.78296 65.4034 11.6994 61.3183 11.6994H56.2599V0.200562H61.3183ZM60.0112 8.94171H61.2504C62.8233 8.94171 63.6098 8.11161 63.6098 6.4514V5.4486C63.6098 3.78839 62.8233 2.95829 61.2504 2.95829H60.0112V8.94171ZM76.6856 0C78.6999 0 80.2558 0.506976 81.3535 1.52093C82.4512 2.53488 83 4.01124 83 5.95C83 7.88876 82.4512 9.36512 81.3535 10.3791C80.2558 11.393 78.6999 11.9 76.6856 11.9C74.6713 11.9 73.1153 11.3986 72.0176 10.3958C70.9313 9.38184 70.3881 7.89991 70.3881 5.95C70.3881 4.00009 70.9313 2.52374 72.0176 1.52093C73.1153 0.506976 74.6713 0 76.6856 0ZM76.6856 2.75772C75.8821 2.75772 75.271 2.99729 74.8523 3.4764C74.4336 3.95552 74.2243 4.60178 74.2243 5.41517V6.48483C74.2243 7.29822 74.4336 7.94448 74.8523 8.4236C75.271 8.90272 75.8821 9.14227 76.6856 9.14227C77.489 9.14227 78.1001 8.90272 78.5188 8.4236C78.9488 7.94448 79.1638 7.29822 79.1638 6.48483V5.41517C79.1638 4.60178 78.9488 3.95552 78.5188 3.4764C78.1001 2.99729 77.489 2.75772 76.6856 2.75772Z" fill="white"/>
</svg>
