<svg width="83" height="36" viewBox="0 0 83 36" fill="none" xmlns="http://www.w3.org/2000/svg">
<path d="M12.8817 15.8063C13.8568 15.8063 14.7474 16.0125 15.5537 16.425C16.3787 16.8188 17.0256 17.3813 17.4944 18.1126C17.9819 18.8439 18.2257 19.6595 18.2257 20.5596C18.2257 22.9409 17.1475 24.441 14.9912 25.0597V25.1722C17.4475 25.7348 18.6757 27.3473 18.6757 30.0099C18.6757 31.0225 18.4226 31.9225 17.9163 32.71C17.4288 33.4788 16.7538 34.0788 15.8912 34.5101C15.0287 34.9413 14.0818 35.157 13.0505 35.157H0V15.8063H12.8817ZM6.21586 23.344H10.491C10.9036 23.344 11.2411 23.2034 11.5036 22.9222C11.7848 22.6221 11.9254 22.2565 11.9254 21.8252V21.544C11.9254 21.1314 11.7848 20.7846 11.5036 20.5033C11.2223 20.2033 10.8848 20.0533 10.491 20.0533H6.21586V23.344ZM6.21586 30.6568H10.941C11.3536 30.6568 11.6911 30.5162 11.9536 30.2349C12.2348 29.9349 12.3755 29.5693 12.3755 29.138V28.8567C12.3755 28.4255 12.2348 28.0692 11.9536 27.788C11.6911 27.4879 11.3536 27.3379 10.941 27.3379H6.21586V30.6568ZM31.5102 15.4688C34.8478 15.4688 37.426 16.3219 39.2448 18.0282C41.0637 19.7346 41.9731 22.219 41.9731 25.4816C41.9731 28.7442 41.0637 31.2287 39.2448 32.935C37.426 34.6414 34.8478 35.4945 31.5102 35.4945C28.1725 35.4945 25.5944 34.6507 23.7755 32.9632C21.9754 31.2568 21.0754 28.763 21.0754 25.4816C21.0754 22.2002 21.9754 19.7158 23.7755 18.0282C25.5944 16.3219 28.1725 15.4688 31.5102 15.4688ZM31.5102 20.1095C30.1789 20.1095 29.1664 20.5127 28.4726 21.319C27.7788 22.1253 27.4319 23.2128 27.4319 24.5816V26.3817C27.4319 27.7505 27.7788 28.838 28.4726 29.6443C29.1664 30.4506 30.1789 30.8537 31.5102 30.8537C32.8415 30.8537 33.854 30.4506 34.5478 29.6443C35.2603 28.838 35.6166 27.7505 35.6166 26.3817V24.5816C35.6166 23.2128 35.2603 22.1253 34.5478 21.319C33.854 20.5127 32.8415 20.1095 31.5102 20.1095ZM53.4487 15.4688C55.9238 15.4688 57.9583 15.975 59.5521 16.9876C61.1459 17.9813 61.9615 19.4626 61.999 21.4315V21.769H56.1769V21.6565C56.1769 21.094 55.9707 20.6252 55.5582 20.2502C55.1457 19.8752 54.5175 19.6877 53.6737 19.6877C52.8487 19.6877 52.2112 19.8095 51.7611 20.0533C51.3299 20.2971 51.1142 20.597 51.1142 20.9533C51.1142 21.4596 51.4143 21.8346 52.0143 22.0784C52.6143 22.3222 53.58 22.5753 54.9113 22.8378C56.4676 23.1565 57.7426 23.494 58.7364 23.8503C59.7489 24.1878 60.6303 24.7503 61.3802 25.5379C62.1303 26.3254 62.5147 27.3942 62.5334 28.7442C62.5334 31.0318 61.7553 32.7288 60.199 33.8351C58.6614 34.9413 56.5988 35.4945 54.0112 35.4945C50.9924 35.4945 48.6392 34.9882 46.9516 33.9757C45.2828 32.9632 44.4484 31.1724 44.4484 28.6036H50.3267C50.3267 29.5787 50.5798 30.2349 51.0861 30.5724C51.5924 30.8912 52.3799 31.0506 53.4487 31.0506C54.2362 31.0506 54.8831 30.9662 55.3894 30.7974C55.9144 30.6287 56.1769 30.2818 56.1769 29.7568C56.1769 29.288 55.8863 28.9411 55.305 28.7161C54.7425 28.4723 53.8143 28.2192 52.5205 27.9567C50.9455 27.6192 49.6423 27.2723 48.611 26.9161C47.5798 26.5411 46.6797 25.9316 45.9109 25.0879C45.1422 24.2441 44.7578 23.1003 44.7578 21.6565C44.7578 19.5377 45.5734 17.9813 47.2047 16.9876C48.8548 15.975 50.9361 15.4688 53.4487 15.4688ZM73.7465 15.4688C76.2216 15.4688 78.2565 15.975 79.8499 16.9876C81.4439 17.9813 82.2596 19.4626 82.2968 21.4315V21.769H76.4747V21.6565C76.4747 21.094 76.2687 20.6252 75.856 20.2502C75.4439 19.8752 74.8153 19.6877 73.9715 19.6877C73.1467 19.6877 72.509 19.8095 72.0589 20.0533C71.6279 20.2971 71.412 20.597 71.412 20.9533C71.412 21.4596 71.7123 21.8346 72.3121 22.0784C72.9126 22.3222 73.878 22.5753 75.2091 22.8378C76.7658 23.1565 78.0406 23.494 79.0342 23.8503C80.0467 24.1878 80.9285 24.7503 81.678 25.5379C82.4283 26.3254 82.8129 27.3942 82.8312 28.7442C82.8312 31.0318 82.0535 32.7288 80.4968 33.8351C78.9597 34.9413 76.8966 35.4945 74.309 35.4945C71.2904 35.4945 68.9369 34.9882 67.2496 33.9757C65.5808 32.9632 64.7464 31.1724 64.7464 28.6036H70.6245C70.6245 29.5787 70.8776 30.2349 71.3839 30.5724C71.8902 30.8912 72.6777 31.0506 73.7465 31.0506C74.534 31.0506 75.1809 30.9662 75.6872 30.7974C76.2125 30.6287 76.4747 30.2818 76.4747 29.7568C76.4747 29.288 76.1843 28.9411 75.6028 28.7161C75.0403 28.4723 74.1121 28.2192 72.8183 27.9567C71.2433 27.6192 69.9403 27.2723 68.9088 26.9161C67.8777 26.5411 66.9777 25.9316 66.2089 25.0879C65.4402 24.2441 65.0558 23.1003 65.0558 21.6565C65.0558 19.5377 65.8714 17.9813 67.5027 16.9876C69.1528 15.975 71.2341 15.4688 73.7465 15.4688Z" fill="#1549B5"/>
<path d="M8.37671 11.7521L3.47281 6.14467V11.7521H0.0281982V0.201465H3.30312L8.20703 5.89284V0.201465H11.6516V11.7521H8.37671ZM21.3747 0C23.3883 0 24.9438 0.509258 26.0411 1.52777C27.1384 2.54629 27.687 4.02929 27.687 5.97679C27.687 7.92428 27.1384 9.40728 26.0411 10.4258C24.9438 11.4443 23.3883 11.9536 21.3747 11.9536C19.3611 11.9536 17.8057 11.4499 16.7084 10.4426C15.6224 9.42407 15.0794 7.93547 15.0794 5.97679C15.0794 4.0181 15.6224 2.5351 16.7084 1.52777C17.8057 0.509258 19.3611 0 21.3747 0ZM21.3747 2.77014C20.5716 2.77014 19.9607 3.01078 19.5421 3.49205C19.1236 3.97333 18.9143 4.62249 18.9143 5.43955V6.51402C18.9143 7.33108 19.1236 7.98024 19.5421 8.46152C19.9607 8.94279 20.5716 9.18343 21.3747 9.18343C22.1779 9.18343 22.7888 8.94279 23.2073 8.46152C23.6372 7.98024 23.8521 7.33108 23.8521 6.51402V5.43955C23.8521 4.62249 23.6372 3.97333 23.2073 3.49205C22.7888 3.01078 22.1779 2.77014 21.3747 2.77014ZM39.6058 11.7521L38.0956 4.71763H38.0277L36.5175 11.7521H32.3942L29.6622 0.201465H33.565L34.9055 6.74907H34.9734L36.2969 0.201465H39.9961L41.4045 6.74907H41.4723L42.728 0.201465H46.4611L45.0951 5.97678L43.7291 11.7521H39.6058ZM61.3256 0.201465C65.4094 0.201465 67.4513 2.12657 67.4513 5.97679C67.4513 9.827 65.4094 11.7521 61.3256 11.7521H56.269V0.201465H61.3256ZM60.0191 8.98197H61.2578C62.8302 8.98197 63.6164 8.14813 63.6164 6.48045V5.47312C63.6164 3.80544 62.8302 2.9716 61.2578 2.9716H60.0191V8.98197ZM76.6878 0C78.7014 0 80.2568 0.509258 81.3541 1.52777C82.4514 2.54629 83 4.02929 83 5.97679C83 7.92428 82.4514 9.40728 81.3541 10.4258C80.2568 11.4443 78.7014 11.9536 76.6878 11.9536C74.6742 11.9536 73.1187 11.4499 72.0214 10.4426C70.9354 9.42407 70.3924 7.93547 70.3924 5.97679C70.3924 4.0181 70.9354 2.5351 72.0214 1.52777C73.1187 0.509258 74.6742 0 76.6878 0ZM76.6878 2.77014C75.8846 2.77014 75.2737 3.01078 74.8552 3.49205C74.4366 3.97333 74.2273 4.62249 74.2273 5.43955V6.51402C74.2273 7.33108 74.4366 7.98024 74.8552 8.46152C75.2737 8.94279 75.8846 9.18343 76.6878 9.18343C77.4909 9.18343 78.1018 8.94279 78.5204 8.46152C78.9502 7.98024 79.1652 7.33108 79.1652 6.51402V5.43955C79.1652 4.62249 78.9502 3.97333 78.5204 3.49205C78.1018 3.01078 77.4909 2.77014 76.6878 2.77014Z" fill="#1549B5"/>
</svg>
