<svg width="22" height="22" viewBox="0 0 24 25" fill="none" xmlns="http://www.w3.org/2000/svg">
<path d="M3 6.40898C3 5.28888 3 4.72883 3.21799 4.301C3.40973 3.92468 3.71569 3.61872 4.09202 3.42697C4.51984 3.20898 5.0799 3.20898 6.2 3.20898H17.8C18.9201 3.20898 19.4802 3.20898 19.908 3.42697C20.2843 3.61872 20.5903 3.92468 20.782 4.301C21 4.72883 21 5.28888 21 6.40898V18.009C21 19.1291 21 19.6891 20.782 20.117C20.5903 20.4933 20.2843 20.7993 19.908 20.991C19.4802 21.209 18.9201 21.209 17.8 21.209H6.2C5.07989 21.209 4.51984 21.209 4.09202 20.991C3.71569 20.7993 3.40973 20.4933 3.21799 20.117C3 19.6891 3 19.1291 3 18.009V6.40898Z" stroke="#696D6E" stroke-width="2" stroke-linecap="round"/>
<path d="M19 21.209L15 6.70898" stroke="#696D6E" stroke-width="2"/>
<path d="M21 6.20898L3 8.20898" stroke="#696D6E" stroke-width="2"/>
<path d="M13 14.2972C13 16.1362 11.2611 17.4424 10.4311 17.9611C10.1647 18.1276 9.83526 18.1276 9.56892 17.9611C8.7389 17.4424 7 16.1362 7 14.2972C7 12.4443 8.4536 11.209 10 11.209C11.6 11.209 13 12.4443 13 14.2972Z" stroke="#696D6E" stroke-width="2"/>
</svg>
