<svg width="28" height="31" viewBox="0 0 28 31" fill="none" xmlns="http://www.w3.org/2000/svg">
<path d="M0 10.7101C0 5.66132 0 3.13692 1.53769 1.56846C3.07538 0 5.55025 0 10.5 0H17.5C22.4497 0 24.9246 0 26.4623 1.56846C28 3.13692 28 5.66132 28 10.7101V22.8975C28 27.6873 28 30.0821 26.5225 30.8146C25.045 31.5471 23.1988 30.0675 19.5064 27.1083L18.3247 26.1613C16.2486 24.4974 15.2105 23.6654 14 23.6654C12.7895 23.6654 11.7514 24.4974 9.67525 26.1613L8.49356 27.1083C4.80121 30.0675 2.95503 31.5471 1.47751 30.8146C0 30.0821 0 27.6873 0 22.8975V10.7101Z" fill="#FFD600"/>
</svg>
