<svg width="22" height="22" viewBox="0 0 24 25" fill="none" xmlns="http://www.w3.org/2000/svg">
<path d="M14.5 21.9453V16.9453C14.5 16.393 14.0523 15.9453 13.5 15.9453H10.5C9.94772 15.9453 9.5 16.393 9.5 16.9453V21.9453" stroke="#696D6E" stroke-width="2" stroke-linecap="round" stroke-linejoin="round"/>
<path d="M5 11.9453V17.9453C5 19.8309 5 20.7737 5.58579 21.3595C6.17157 21.9453 7.11438 21.9453 9 21.9453H15C16.8856 21.9453 17.8284 21.9453 18.4142 21.3595C19 20.7737 19 19.8309 19 17.9453V11.9453" stroke="#696D6E" stroke-width="2"/>
<path d="M4.62127 5.46024C4.80316 4.73268 4.8941 4.3689 5.16536 4.15711C5.43663 3.94531 5.8116 3.94531 6.56155 3.94531H17.4384C18.1884 3.94531 18.5634 3.94531 18.8346 4.15711C19.1059 4.3689 19.1968 4.73268 19.3787 5.46024L20.5823 10.2747C20.6792 10.6621 20.7276 10.8558 20.7169 11.0131C20.6892 11.421 20.416 11.771 20.0269 11.8968C19.8769 11.9453 19.6726 11.9453 19.2641 11.9453V11.9453C18.7309 11.9453 18.4644 11.9453 18.2405 11.8932C17.6133 11.747 17.0948 11.3078 16.8475 10.7131C16.7593 10.5009 16.7164 10.2439 16.6308 9.72988V9.72988C16.6068 9.58607 16.5948 9.51417 16.5812 9.49525C16.5413 9.4397 16.4587 9.4397 16.4188 9.49525C16.4052 9.51417 16.3932 9.58607 16.3692 9.72988L16.2877 10.2191C16.2791 10.271 16.2747 10.2969 16.2704 10.3196C16.0939 11.2458 15.2946 11.923 14.352 11.9448C14.3289 11.9453 14.3026 11.9453 14.25 11.9453V11.9453C14.1974 11.9453 14.1711 11.9453 14.148 11.9448C13.2054 11.923 12.4061 11.2458 12.2296 10.3196C12.2253 10.2969 12.2209 10.271 12.2123 10.2191L12.1308 9.72988C12.1068 9.58607 12.0948 9.51417 12.0812 9.49525C12.0413 9.4397 11.9587 9.4397 11.9188 9.49525C11.9052 9.51417 11.8932 9.58607 11.8692 9.72988L11.7877 10.2191C11.7791 10.271 11.7747 10.2969 11.7704 10.3196C11.5939 11.2458 10.7946 11.923 9.85199 11.9448C9.82887 11.9453 9.80258 11.9453 9.75 11.9453V11.9453C9.69742 11.9453 9.67113 11.9453 9.64801 11.9448C8.70541 11.923 7.90606 11.2458 7.7296 10.3196C7.72527 10.2969 7.72095 10.271 7.7123 10.2191L7.63076 9.72988C7.60679 9.58607 7.59481 9.51417 7.58122 9.49525C7.54132 9.4397 7.45868 9.4397 7.41878 9.49525C7.40519 9.51417 7.39321 9.58607 7.36924 9.72988V9.72988C7.28357 10.2439 7.24074 10.5009 7.15249 10.7131C6.90524 11.3078 6.38675 11.747 5.75951 11.8932C5.53563 11.9453 5.26905 11.9453 4.73591 11.9453V11.9453C4.32737 11.9453 4.12309 11.9453 3.97306 11.8968C3.58403 11.771 3.31078 11.421 3.28307 11.0131C3.27239 10.8558 3.32081 10.6621 3.41765 10.2747L4.62127 5.46024Z" stroke="#696D6E" stroke-width="2"/>
</svg>
