<svg width="24" height="24" viewBox="0 0 24 24" fill="none" xmlns="http://www.w3.org/2000/svg">
<path d="M12 20.2698C11.8012 20.2696 11.6105 20.1905 11.47 20.0498L4.47 13.0498C4.28243 12.8568 4.21204 12.5785 4.28533 12.3196C4.35863 12.0607 4.56447 11.8606 4.82533 11.7946C5.08619 11.7286 5.36243 11.8068 5.55 11.9998L12 18.4498L18.45 11.9998C18.637 11.7991 18.9186 11.7165 19.1843 11.7844C19.45 11.8522 19.6575 12.0597 19.7254 12.3255C19.7932 12.5912 19.7106 12.8728 19.51 13.0598L12.51 20.0598C12.3728 20.192 12.1905 20.2671 12 20.2698Z" fill="#0066FF"/>
<path d="M12 20.2598C11.588 20.2544 11.2554 19.9217 11.25 19.5098V4.50977C11.25 4.24182 11.3929 3.99422 11.625 3.86025C11.857 3.72627 12.1429 3.72627 12.375 3.86025C12.607 3.99422 12.75 4.24182 12.75 4.50977V19.5098C12.7446 19.9217 12.412 20.2544 12 20.2598Z" fill="#0066FF"/>
<path d="M12 20.2698C11.8012 20.2696 11.6105 20.1905 11.47 20.0498L4.47 13.0498C4.28243 12.8568 4.21204 12.5785 4.28533 12.3196C4.35863 12.0607 4.56447 11.8606 4.82533 11.7946C5.08619 11.7286 5.36243 11.8068 5.55 11.9998L12 18.4498L18.45 11.9998C18.637 11.7991 18.9186 11.7165 19.1843 11.7844C19.45 11.8522 19.6575 12.0597 19.7254 12.3255C19.7932 12.5912 19.7106 12.8728 19.51 13.0598L12.51 20.0598C12.3728 20.192 12.1905 20.2671 12 20.2698Z" fill="#0066FF"/>
<path d="M12 20.2598C11.588 20.2544 11.2554 19.9217 11.25 19.5098V4.50977C11.25 4.24182 11.3929 3.99422 11.625 3.86025C11.857 3.72627 12.1429 3.72627 12.375 3.86025C12.607 3.99422 12.75 4.24182 12.75 4.50977V19.5098C12.7446 19.9217 12.412 20.2544 12 20.2598Z" fill="#0066FF"/>
</svg>
