<svg width="24" height="24" viewBox="0 0 24 24" fill="none" xmlns="http://www.w3.org/2000/svg">
<path d="M4.49001 12.0002C4.62336 12.1406 4.80646 12.2232 5.00001 12.2302C5.20748 12.234 5.40703 12.1506 5.55001 12.0002L11.25 6.30019V19.5203C11.2554 19.9322 11.588 20.2649 12 20.2703C12.412 20.2649 12.7446 19.9322 12.75 19.5203V6.30017L18.45 12.0002C18.6411 12.1967 18.9226 12.2763 19.1883 12.209C19.4541 12.1417 19.6637 11.9378 19.7383 11.674C19.8129 11.4102 19.7411 11.1267 19.55 10.9302L12.55 3.93018C12.2529 3.64827 11.7871 3.64827 11.49 3.93018L4.49001 10.9302C4.34648 11.0712 4.26562 11.264 4.26562 11.4652C4.26562 11.6664 4.34648 11.8592 4.49001 12.0002Z" fill="#FF0000"/>
</svg>
