<svg width="123" height="59" viewBox="0 0 123 59" fill="none" xmlns="http://www.w3.org/2000/svg">
<path d="M15.084 21L8.148 12.984V21H3.276V4.488H7.908L14.844 12.624V4.488H19.716V21H15.084ZM33.4682 4.2C36.3162 4.2 38.5162 4.928 40.0682 6.384C41.6202 7.84 42.3962 9.96 42.3962 12.744C42.3962 15.528 41.6202 17.648 40.0682 19.104C38.5162 20.56 36.3162 21.288 33.4682 21.288C30.6202 21.288 28.4202 20.568 26.8682 19.128C25.3322 17.672 24.5642 15.544 24.5642 12.744C24.5642 9.944 25.3322 7.824 26.8682 6.384C28.4202 4.928 30.6202 4.2 33.4682 4.2ZM33.4682 8.16C32.3322 8.16 31.4682 8.504 30.8762 9.192C30.2842 9.88 29.9882 10.808 29.9882 11.976V13.512C29.9882 14.68 30.2842 15.608 30.8762 16.296C31.4682 16.984 32.3322 17.328 33.4682 17.328C34.6042 17.328 35.4682 16.984 36.0602 16.296C36.6682 15.608 36.9722 14.68 36.9722 13.512V11.976C36.9722 10.808 36.6682 9.88 36.0602 9.192C35.4682 8.504 34.6042 8.16 33.4682 8.16ZM59.2539 21L57.1179 10.944H57.0219L54.8859 21H49.0539L45.1899 4.488H50.7099L52.6059 13.848H52.7019L54.5739 4.488H59.8059L61.7979 13.848H61.8939L63.6699 4.488H68.9499L65.0859 21H59.2539ZM89.9741 4.488C95.7501 4.488 98.6381 7.24 98.6381 12.744C98.6381 18.248 95.7501 21 89.9741 21H82.8221V4.488H89.9741ZM88.1261 17.04H89.8781C92.1021 17.04 93.2141 15.848 93.2141 13.464V12.024C93.2141 9.64 92.1021 8.448 89.8781 8.448H88.1261V17.04ZM111.702 4.2C114.55 4.2 116.75 4.928 118.302 6.384C119.854 7.84 120.63 9.96 120.63 12.744C120.63 15.528 119.854 17.648 118.302 19.104C116.75 20.56 114.55 21.288 111.702 21.288C108.854 21.288 106.654 20.568 105.102 19.128C103.566 17.672 102.798 15.544 102.798 12.744C102.798 9.944 103.566 7.824 105.102 6.384C106.654 4.928 108.854 4.2 111.702 4.2ZM111.702 8.16C110.566 8.16 109.702 8.504 109.11 9.192C108.518 9.88 108.222 10.808 108.222 11.976V13.512C108.222 14.68 108.518 15.608 109.11 16.296C109.702 16.984 110.566 17.328 111.702 17.328C112.838 17.328 113.702 16.984 114.294 16.296C114.902 15.608 115.206 14.68 115.206 13.512V11.976C115.206 10.808 114.902 9.88 114.294 9.192C113.702 8.504 112.838 8.16 111.702 8.16Z" fill="white"/>
<path d="M21.28 26.48C22.6667 26.48 23.9333 26.7733 25.08 27.36C26.2533 27.92 27.1733 28.72 27.84 29.76C28.5333 30.8 28.88 31.96 28.88 33.24C28.88 36.6267 27.3467 38.76 24.28 39.64V39.8C27.7733 40.6 29.52 42.8933 29.52 46.68C29.52 48.12 29.16 49.4 28.44 50.52C27.7467 51.6133 26.7867 52.4667 25.56 53.08C24.3333 53.6933 22.9867 54 21.52 54H2.96V26.48H21.28ZM11.8 37.2H17.88C18.4667 37.2 18.9467 37 19.32 36.6C19.72 36.1733 19.92 35.6533 19.92 35.04V34.64C19.92 34.0533 19.72 33.56 19.32 33.16C18.92 32.7333 18.44 32.52 17.88 32.52H11.8V37.2ZM11.8 47.6H18.52C19.1067 47.6 19.5867 47.4 19.96 47C20.36 46.5733 20.56 46.0533 20.56 45.44V45.04C20.56 44.4267 20.36 43.92 19.96 43.52C19.5867 43.0933 19.1067 42.88 18.52 42.88H11.8V47.6ZM47.7728 26C52.5195 26 56.1861 27.2133 58.7728 29.64C61.3595 32.0667 62.6528 35.6 62.6528 40.24C62.6528 44.88 61.3595 48.4133 58.7728 50.84C56.1861 53.2667 52.5195 54.48 47.7728 54.48C43.0261 54.48 39.3595 53.28 36.7728 50.88C34.2128 48.4533 32.9328 44.9067 32.9328 40.24C32.9328 35.5733 34.2128 32.04 36.7728 29.64C39.3595 27.2133 43.0261 26 47.7728 26ZM47.7728 32.6C45.8795 32.6 44.4395 33.1733 43.4528 34.32C42.4661 35.4667 41.9728 37.0133 41.9728 38.96V41.52C41.9728 43.4667 42.4661 45.0133 43.4528 46.16C44.4395 47.3067 45.8795 47.88 47.7728 47.88C49.6661 47.88 51.1061 47.3067 52.0928 46.16C53.1061 45.0133 53.6128 43.4667 53.6128 41.52V38.96C53.6128 37.0133 53.1061 35.4667 52.0928 34.32C51.1061 33.1733 49.6661 32.6 47.7728 32.6ZM78.9731 26C82.4931 26 85.3865 26.72 87.6531 28.16C89.9198 29.5733 91.0798 31.68 91.1331 34.48V34.96H82.8531V34.8C82.8531 34 82.5598 33.3333 81.9731 32.8C81.3865 32.2667 80.4931 32 79.2931 32C78.1198 32 77.2131 32.1733 76.5731 32.52C75.9598 32.8667 75.6531 33.2933 75.6531 33.8C75.6531 34.52 76.0798 35.0533 76.9331 35.4C77.7865 35.7467 79.1598 36.1067 81.0531 36.48C83.2665 36.9333 85.0798 37.4133 86.4931 37.92C87.9331 38.4 89.1865 39.2 90.2531 40.32C91.3198 41.44 91.8665 42.96 91.8931 44.88C91.8931 48.1333 90.7865 50.5467 88.5731 52.12C86.3865 53.6933 83.4531 54.48 79.7731 54.48C75.4798 54.48 72.1331 53.76 69.7331 52.32C67.3598 50.88 66.1731 48.3333 66.1731 44.68H74.5331C74.5331 46.0667 74.8931 47 75.6131 47.48C76.3331 47.9333 77.4531 48.16 78.9731 48.16C80.0931 48.16 81.0131 48.04 81.7331 47.8C82.4798 47.56 82.8531 47.0667 82.8531 46.32C82.8531 45.6533 82.4398 45.16 81.6131 44.84C80.8131 44.4933 79.4931 44.1333 77.6531 43.76C75.4131 43.28 73.5598 42.7867 72.0931 42.28C70.6265 41.7467 69.3465 40.88 68.2531 39.68C67.1598 38.48 66.6131 36.8533 66.6131 34.8C66.6131 31.7867 67.7731 29.5733 70.0931 28.16C72.4398 26.72 75.3998 26 78.9731 26ZM107.84 26C111.36 26 114.254 26.72 116.52 28.16C118.787 29.5733 119.947 31.68 120 34.48V34.96H111.72V34.8C111.72 34 111.427 33.3333 110.84 32.8C110.254 32.2667 109.36 32 108.16 32C106.987 32 106.08 32.1733 105.44 32.52C104.827 32.8667 104.52 33.2933 104.52 33.8C104.52 34.52 104.947 35.0533 105.8 35.4C106.654 35.7467 108.027 36.1067 109.92 36.48C112.134 36.9333 113.947 37.4133 115.36 37.92C116.8 38.4 118.054 39.2 119.12 40.32C120.187 41.44 120.734 42.96 120.76 44.88C120.76 48.1333 119.654 50.5467 117.44 52.12C115.254 53.6933 112.32 54.48 108.64 54.48C104.347 54.48 101 53.76 98.6003 52.32C96.227 50.88 95.0403 48.3333 95.0403 44.68H103.4C103.4 46.0667 103.76 47 104.48 47.48C105.2 47.9333 106.32 48.16 107.84 48.16C108.96 48.16 109.88 48.04 110.6 47.8C111.347 47.56 111.72 47.0667 111.72 46.32C111.72 45.6533 111.307 45.16 110.48 44.84C109.68 44.4933 108.36 44.1333 106.52 43.76C104.28 43.28 102.427 42.7867 100.96 42.28C99.4936 41.7467 98.2136 40.88 97.1203 39.68C96.027 38.48 95.4803 36.8533 95.4803 34.8C95.4803 31.7867 96.6403 29.5733 98.9603 28.16C101.307 26.72 104.267 26 107.84 26Z" fill="white"/>
</svg>
